<?xml version="1.0" encoding="UTF-8"?>
<svg version="1.1" xmlns="http://www.w3.org/2000/svg" width="618" height="404">
<path d="M0 0 C6.22255044 4.25306653 10.31119724 8.69658235 13.92578125 15.26953125 C14.37953125 16.06746094 14.83328125 16.86539063 15.30078125 17.6875 C17.59986275 21.8171002 19.78683438 26.00535574 21.98828125 30.1875 C22.73816904 31.61073621 23.48817199 33.03391175 24.23828125 34.45703125 C24.61581543 35.1747168 24.99334961 35.89240234 25.38232422 36.63183594 C28.47714252 42.48816439 31.7002339 48.26547831 35.00708008 54.00463867 C36.92375068 57.35870299 38.54199502 60.66681028 39.92578125 64.26953125 C40.64799516 65.67994175 41.39856078 67.07616955 42.17578125 68.45703125 C42.61664063 69.24078125 43.0575 70.02453125 43.51171875 70.83203125 C44.9039523 73.23190345 46.34717228 75.59394501 47.80078125 77.95703125 C50.56703542 82.52489711 52.96056151 87.23297927 55.31982422 92.02172852 C59.05606586 99.59599715 63.12726576 106.93914651 67.42578125 114.20703125 C70.26595444 119.03780618 72.79134242 123.95723686 75.25390625 128.98828125 C77.58785243 133.56892329 80.1221226 138.02818795 82.67919922 142.48730469 C84.5045821 145.68355092 86.25871366 148.88967477 87.88671875 152.19140625 C90.07990273 156.63836538 92.49328774 160.95001247 94.92578125 165.26953125 C103.92578125 181.25134943 103.92578125 181.25134943 103.92578125 185.26953125 C104.58578125 185.26953125 105.24578125 185.26953125 105.92578125 185.26953125 C106.36494873 186.16526855 106.36494873 186.16526855 106.81298828 187.07910156 C109.98178249 193.4862519 113.34634317 199.76275991 116.80078125 206.01953125 C124.07314832 219.30677296 124.07314832 219.30677296 127.23828125 225.45703125 C127.79128906 226.52308594 128.34429688 227.58914063 128.9140625 228.6875 C129.92578125 231.26953125 129.92578125 231.26953125 128.92578125 234.26953125 C120.68485632 234.3159498 112.44398638 234.3514487 104.20296288 234.37315559 C100.37598413 234.38357581 96.54909509 234.39770267 92.72216797 234.42041016 C89.0263341 234.4422016 85.33058632 234.45411312 81.63469315 234.45928574 C80.22734854 234.46297021 78.82000844 234.47016503 77.41270065 234.48099136 C75.43582537 234.49558925 73.45886276 234.49634888 71.48193359 234.49658203 C69.79648941 234.50324387 69.79648941 234.50324387 68.07699585 234.51004028 C64.1410709 234.20964008 60.22416272 233.73806714 57.51367188 230.67236328 C57.20623047 230.04700684 56.89878906 229.42165039 56.58203125 228.77734375 C56.2260083 228.07810791 55.86998535 227.37887207 55.50317383 226.65844727 C55.14763428 225.91135498 54.79209473 225.1642627 54.42578125 224.39453125 C54.04123779 223.62874756 53.65669434 222.86296387 53.26049805 222.07397461 C52.12997629 219.81458701 51.02530055 217.54413288 49.92578125 215.26953125 C48.86567613 213.12251376 47.8035272 210.97650275 46.73828125 208.83203125 C46.2690625 207.88199219 45.79984375 206.93195313 45.31640625 205.953125 C43.97189284 203.35851626 42.52035403 200.88213364 40.98828125 198.39453125 C38.66311345 194.60937437 36.6331107 190.75753271 34.67578125 186.76953125 C31.90332016 181.12625125 28.94301783 175.62567107 25.86328125 170.14453125 C22.5752699 164.28674862 19.43043827 158.39841263 16.46875 152.3671875 C11.51090251 142.41383798 6.16876685 132.65857021 0.73828125 122.95703125 C-3.45894491 115.4568333 -7.38182316 107.85675819 -11.11328125 100.11328125 C-13.78570817 94.63806511 -16.88447621 89.45817911 -20.07421875 84.26953125 C-23.13148329 86.90735401 -24.70881542 90.03531044 -26.57421875 93.58203125 C-27.16203125 94.69191406 -27.74984375 95.80179687 -28.35546875 96.9453125 C-29.95574568 100.04039356 -31.52545761 103.14839982 -33.07421875 106.26953125 C-33.73421875 106.26953125 -34.39421875 106.26953125 -35.07421875 106.26953125 C-35.15671875 107.11515625 -35.23921875 107.96078125 -35.32421875 108.83203125 C-36.20059255 112.84874448 -37.92332903 115.83385025 -40.07421875 119.26953125 C-44.23532158 126.02990246 -48.06556445 132.90014614 -51.69921875 139.95703125 C-54.71781395 145.79717446 -57.77995743 151.58008206 -61.07421875 157.26953125 C-61.975601 158.91233214 -62.87173713 160.55802627 -63.76171875 162.20703125 C-65.54977677 165.50319881 -67.35972201 168.78419295 -69.21484375 172.04296875 C-73.50844024 179.5888147 -77.56381599 187.16981939 -81.390625 194.96484375 C-83.54757341 199.19866825 -85.95812052 203.25394093 -88.38671875 207.3359375 C-90.08488785 210.28807868 -91.62797091 213.2791743 -93.13671875 216.33203125 C-93.63171875 217.30914062 -94.12671875 218.28625 -94.63671875 219.29296875 C-96.11837623 222.26773082 -96.11837623 222.26773082 -97.32421875 225.43359375 C-98.66260434 228.51666056 -99.84837618 230.75015756 -102.07421875 233.26953125 C-104.77836609 233.96250916 -104.77836609 233.96250916 -107.9440918 234.07788086 C-109.10516449 234.12572723 -110.26623718 234.17357361 -111.4624939 234.22286987 C-117.17827942 234.29671449 -122.87890308 234.2818773 -128.59375 234.1484375 C-129.8183342 234.12482651 -131.0429184 234.10121552 -132.30461121 234.07688904 C-136.16545805 234.00112082 -140.02605857 233.91672978 -143.88671875 233.83203125 C-146.5253791 233.77872334 -149.164051 233.72598377 -151.80273438 233.67382812 C-158.2267105 233.54562525 -164.65050783 233.41036773 -171.07421875 233.26953125 C-169.59932382 228.66401644 -167.78628619 224.63587587 -165.44921875 220.39453125 C-164.81757813 219.24210938 -164.1859375 218.0896875 -163.53515625 216.90234375 C-162.81199219 215.59910156 -162.81199219 215.59910156 -162.07421875 214.26953125 C-161.41421875 214.26953125 -160.75421875 214.26953125 -160.07421875 214.26953125 C-159.90442505 213.19191528 -159.90442505 213.19191528 -159.73120117 212.0925293 C-159.03516666 209.10172773 -157.9893898 206.81593189 -156.5625 204.1015625 C-155.79583008 202.63686523 -155.79583008 202.63686523 -155.01367188 201.14257812 C-154.47677734 200.13259766 -153.93988281 199.12261719 -153.38671875 198.08203125 C-152.86916016 197.09138672 -152.35160156 196.10074219 -151.81835938 195.08007812 C-148.85130297 189.44525743 -145.71744551 183.95735426 -142.40698242 178.51831055 C-140.62029058 175.50361581 -139.09374491 172.4277621 -137.57421875 169.26953125 C-135.13315772 164.26830004 -132.46432065 159.49489506 -129.5390625 154.76171875 C-127.33695141 151.01519374 -125.48487931 147.10796322 -123.57421875 143.20703125 C-122.18002702 140.47673912 -120.68025917 137.87934694 -119.07421875 135.26953125 C-116.94406912 131.80184581 -115.05018219 128.30028848 -113.26171875 124.64453125 C-109.87897202 117.75602882 -106.09712494 111.12040651 -102.30810547 104.45068359 C-98.51728318 97.74961389 -94.80219473 91.00569186 -91.07421875 84.26953125 C-90.5534375 83.33109375 -90.03265625 82.39265625 -89.49609375 81.42578125 C-85.55895362 74.27557273 -81.79560562 67.03411374 -78.03149414 59.79174805 C-75.47610044 54.88795801 -72.85372718 50.04983103 -70.07421875 45.26953125 C-64.53380577 35.76765698 -64.53380577 35.76765698 -59.44921875 26.01953125 C-53.29354349 13.50299156 -46.45728232 2.19373743 -32.921875 -2.921875 C-20.89800376 -6.87473989 -11.22502243 -6.31853232 0 0 Z " fill="#005DD6" transform="translate(440.07421875,147.73046875)"/>
<path d="M0 0 C0.67328842 -0.00014603 1.34657684 -0.00029205 2.04026794 -0.0004425 C4.26955366 0.00025512 6.4987562 0.0080405 8.72802734 0.01586914 C10.27216547 0.01773385 11.81630419 0.01915751 13.36044312 0.02015686 C17.42766957 0.02397785 21.49486039 0.03380457 25.56207275 0.04486084 C29.71113605 0.05508395 33.86020509 0.05965641 38.00927734 0.06469727 C46.15252287 0.0754272 54.29573943 0.09249862 62.43896484 0.11352539 C61.7806707 3.66364859 60.94011911 6.43195732 59.22412109 9.61743164 C58.78519531 10.44049805 58.34626953 11.26356445 57.89404297 12.11157227 C57.43449219 12.9578418 56.97494141 13.80411133 56.50146484 14.67602539 C55.5963068 16.36471486 54.69135159 18.05351307 53.78662109 19.74243164 C53.18346069 20.85726929 53.18346069 20.85726929 52.56811523 21.99462891 C51.48980998 24.01811242 50.45465851 26.05801716 49.43896484 28.11352539 C48.77896484 28.11352539 48.11896484 28.11352539 47.43896484 28.11352539 C47.30748047 29.12672852 47.30748047 29.12672852 47.17333984 30.16040039 C46.2453688 33.89202863 44.53779839 37.0261136 42.68896484 40.36352539 C42.32407959 41.03464355 41.95919434 41.70576172 41.58325195 42.3972168 C39.37447306 46.4504803 37.12688637 50.48217046 34.86865234 54.50805664 C31.30781959 60.99733381 27.88976331 67.56527819 24.43896484 74.11352539 C23.77896484 74.11352539 23.11896484 74.11352539 22.43896484 74.11352539 C22.26240356 75.21253174 22.26240356 75.21253174 22.08227539 76.33374023 C21.43658569 79.12380586 20.54477688 81.10462641 19.14599609 83.59008789 C18.68370605 84.41984131 18.22141602 85.24959473 17.74511719 86.10449219 C17.25221191 86.97372314 16.75930664 87.8429541 16.25146484 88.73852539 C15.23969737 90.54969609 14.22797815 92.36089374 13.21630859 94.17211914 C12.73145996 95.03434082 12.24661133 95.8965625 11.74707031 96.78491211 C7.69457228 103.99893344 3.80410038 111.29805711 -0.06103516 118.61352539 C-5.14980564 128.24132749 -10.34074773 137.77525793 -15.85400391 147.16821289 C-17.91570329 150.72546995 -19.88189951 154.32755346 -21.83447266 157.94555664 C-23.17819602 160.41107621 -24.5380578 162.86444737 -25.91259766 165.31274414 C-30.48118128 173.4577663 -34.86381816 181.6273924 -38.97900391 190.01196289 C-40.8448903 193.67002165 -42.9409973 197.13526975 -45.10009766 200.62524414 C-46.7138119 203.37373604 -48.10726568 206.18383247 -49.49853516 209.05102539 C-57.39260393 225.06707568 -57.39260393 225.06707568 -63.56103516 228.11352539 C-63.87943359 228.76063477 -64.19783203 229.40774414 -64.52587891 230.07446289 C-66.59087817 234.14212182 -71.51061437 235.47130607 -75.56103516 237.11352539 C-85.98966105 240.40411123 -95.46753946 239.14197157 -105.56103516 235.11352539 C-110.63062 231.91719799 -115.31758453 228.22067305 -118.56103516 223.11352539 C-118.56103516 222.12352539 -118.56103516 221.13352539 -118.56103516 220.11352539 C-119.22103516 220.11352539 -119.88103516 220.11352539 -120.56103516 220.11352539 C-121.06892578 219.07454102 -121.57681641 218.03555664 -122.10009766 216.96508789 C-126.48632211 207.96209589 -126.48632211 207.96209589 -131.49853516 199.30102539 C-134.99429796 193.70204266 -137.66443604 187.70665355 -140.40258789 181.71191406 C-140.76811768 180.91889893 -141.13364746 180.12588379 -141.51025391 179.30883789 C-141.99498169 178.24173584 -141.99498169 178.24173584 -142.48950195 177.15307617 C-143.64916048 174.94578811 -145.0483921 173.09136421 -146.56103516 171.11352539 C-147.61758309 169.09010998 -148.63394275 167.04551599 -149.62353516 164.98852539 C-152.40219012 159.29777938 -155.38990384 153.75530977 -158.49853516 148.23852539 C-161.63613398 142.65501228 -164.66630344 137.04574269 -167.49853516 131.30102539 C-174.54826328 117.00424851 -182.05004603 102.95349885 -189.78027344 89.0144043 C-192.69926013 83.734488 -195.4501038 78.39936877 -198.09619141 72.97680664 C-200.42567747 68.42343789 -203.03044219 64.0357942 -205.63134766 59.63305664 C-207.06698991 57.11743627 -208.25932168 54.56955043 -209.39697266 51.90649414 C-211.86081862 46.23485263 -214.96394225 40.95794195 -218.06103516 35.61352539 C-228.62229421 17.3887677 -228.62229421 17.3887677 -229.56103516 10.11352539 C-219.89322384 7.02805369 -210.26123006 6.91917618 -200.18603516 6.92602539 C-198.95320801 6.92683105 -197.72038086 6.92763672 -196.45019531 6.9284668 C-186.36095833 6.99549182 -176.54483599 7.7216013 -166.56103516 9.11352539 C-164.95808594 9.24307617 -164.95808594 9.24307617 -163.32275391 9.37524414 C-160.76243295 9.66054763 -158.84944105 9.93705642 -156.56103516 11.11352539 C-154.51552875 13.86394477 -153.65501115 16.89289778 -152.56103516 20.11352539 C-151.67407742 21.98208574 -150.75507703 23.83564588 -149.81103516 25.67602539 C-149.29798828 26.6930957 -148.78494141 27.71016602 -148.25634766 28.75805664 C-147.69689453 29.86536133 -147.13744141 30.97266602 -146.56103516 32.11352539 C-145.2669029 34.69562737 -143.97645108 37.2795645 -142.68603516 39.86352539 C-140.64837537 43.94371044 -138.60848677 48.0226425 -136.55322266 52.09399414 C-132.6969111 59.74714415 -128.97122516 67.44581565 -125.36767578 75.22143555 C-123.25728957 79.74142606 -120.99466935 84.10108572 -118.37353516 88.35180664 C-117.56103516 90.11352539 -117.56103516 90.11352539 -117.56103516 94.11352539 C-116.90103516 94.11352539 -116.24103516 94.11352539 -115.56103516 94.11352539 C-114.86880859 95.62366211 -114.86880859 95.62366211 -114.16259766 97.16430664 C-108.298685 109.84807189 -101.83450983 122.16934874 -95.21728516 134.47290039 C-94.85248047 135.15271973 -94.48767578 135.83253906 -94.11181641 136.53295898 C-93.43496278 137.79262384 -92.7554768 139.05087958 -92.07275391 140.30737305 C-90.34802847 143.5100414 -88.83708007 146.70648547 -87.56103516 150.11352539 C-83.83267628 144.35669159 -80.53119756 138.44954945 -77.37353516 132.36352539 C-76.93589844 131.52692383 -76.49826172 130.69032227 -76.04736328 129.82836914 C-74.18915999 126.27083185 -72.34830812 122.70730564 -70.56103516 119.11352539 C-69.90103516 119.11352539 -69.24103516 119.11352539 -68.56103516 119.11352539 C-68.51978516 118.32977539 -68.47853516 117.54602539 -68.43603516 116.73852539 C-67.40497809 112.46700327 -65.53759374 109.54819334 -63.22119141 105.85180664 C-61.02531791 102.22990705 -59.19979005 98.47003405 -57.33837891 94.66821289 C-54.68083521 89.3531255 -51.87914694 84.11484275 -49.07568359 78.87548828 C-47.19246279 75.3302328 -45.39728309 71.82263081 -43.88525391 68.10180664 C-42.56103516 65.11352539 -42.56103516 65.11352539 -40.56103516 64.11352539 C-39.4411782 62.16453101 -39.4411782 62.16453101 -38.38916016 59.77368164 C-37.97480713 58.87979736 -37.5604541 57.98591309 -37.13354492 57.06494141 C-36.6971167 56.11159912 -36.26068848 55.15825684 -35.81103516 54.17602539 C-32.76459589 47.63602853 -29.73528742 41.22229233 -25.81494141 35.14868164 C-24.21356858 32.54956873 -22.90117815 29.85668228 -21.56103516 27.11352539 C-13.78481779 11.24920468 -13.78481779 11.24920468 -10.56103516 6.23852539 C-8.38135059 3.45113584 -8.38135059 3.45113584 -8.56103516 1.11352539 C-5.68359248 -0.32519595 -3.21537593 -0.00584614 0 0 Z " fill="#F8F8F8" transform="translate(319.56103515625,142.886474609375)"/>
<path d="M0 0 C3.43941129 0.00567409 6.87874479 0.00231965 10.31815338 -0.00343704 C23.38599036 -0.02201294 36.44337636 0.0482424 49.50244141 0.57568359 C50.47465637 0.61442596 51.44687134 0.65316833 52.44854736 0.69308472 C57.01656632 0.90310328 61.38451305 1.33599012 65.89306641 2.13037109 C68.31930092 2.31598 70.74821593 2.46820342 73.17822266 2.59521484 C74.60067355 2.67265582 76.02311797 2.75021571 77.44555664 2.82788086 C78.18248749 2.86696564 78.91941833 2.90605042 79.67868042 2.94631958 C92.79981536 3.64679111 105.86854827 4.5466251 118.93798828 5.92773438 C121.48309296 6.19152519 124.0311356 6.41282984 126.58056641 6.63037109 C130.49517149 6.97778454 134.39589645 7.41211362 138.29980469 7.86108398 C146.11605478 8.75932569 153.89962651 9.46075772 161.75634766 9.88427734 C164.89306641 10.13037109 164.89306641 10.13037109 167.08422852 10.61279297 C170.7005332 11.27916115 174.30591526 11.47406214 177.97119141 11.65771484 C178.75713684 11.69904037 179.54308228 11.74036591 180.35284424 11.78294373 C188.61295253 12.19825387 196.87671873 12.43604954 205.14453125 12.63305664 C207.65586026 12.69317738 210.16703061 12.75815964 212.67822266 12.82373047 C222.08583874 13.06178863 231.4819004 13.1910448 240.89306641 13.13037109 C241.22306641 11.48037109 241.55306641 9.83037109 241.89306641 8.13037109 C242.55306641 8.13037109 243.21306641 8.13037109 243.89306641 8.13037109 C243.93431641 7.55287109 243.97556641 6.97537109 244.01806641 6.38037109 C245.38266179 2.87141154 247.62837635 1.82549862 250.89306641 0.13037109 C254.23597951 0.28376426 255.51937328 0.74785057 257.87744141 3.16162109 C258.46009766 3.97630859 259.04275391 4.79099609 259.64306641 5.63037109 C260.23603516 6.44505859 260.82900391 7.25974609 261.43994141 8.09912109 C261.91947266 8.76943359 262.39900391 9.43974609 262.89306641 10.13037109 C264.67997706 11.91728175 267.2250987 11.34566342 269.64306641 11.38037109 C276.73705341 11.33375124 283.0602932 9.89282721 289.89306641 8.13037109 C291.68198581 7.76257927 293.47353612 7.40723007 295.26806641 7.06787109 C298.16740456 6.50867946 300.86009855 5.84501735 303.70556641 5.00537109 C306.6246547 4.20405274 308.89195915 3.94848581 311.89306641 4.13037109 C310.37211914 8.36383577 307.26847114 10.36368383 303.70556641 12.81787109 C303.08625244 13.25139893 302.46693848 13.68492676 301.82885742 14.1315918 C295.05462428 18.81084164 288.03490778 23.04105987 280.89306641 27.13037109 C279.20310547 28.10876953 279.20310547 28.10876953 277.47900391 29.10693359 C266.93727231 35.01936062 256.55331476 38.18094013 244.72900391 40.51708984 C241.96133733 40.99287869 241.96133733 40.99287869 239.89306641 42.13037109 C220.06274281 45.03499354 198.94674015 43.50425748 179.14306641 41.13037109 C178.45011475 41.0473877 177.75716309 40.9644043 177.04321289 40.87890625 C172.13779405 40.25273492 172.13779405 40.25273492 169.89306641 39.13037109 C168.49184674 38.93509856 167.08385234 38.78700317 165.67431641 38.66552734 C164.82981934 38.58890869 163.98532227 38.51229004 163.11523438 38.43334961 C162.21691895 38.3539917 161.31860352 38.27463379 160.39306641 38.19287109 C158.5515774 38.01939281 156.71041973 37.84235745 154.86962891 37.66162109 C154.04027832 37.58234375 153.21092773 37.50306641 152.35644531 37.42138672 C149.04986253 37.03075771 145.81210098 36.42796399 142.56494141 35.69677734 C138.73611152 34.88511019 134.87960951 34.26526978 131.01806641 33.63037109 C130.23189941 33.50025635 129.44573242 33.3701416 128.63574219 33.23608398 C125.27752148 32.68174324 121.9184464 32.13441287 118.55712891 31.59912109 C113.53054939 30.79055602 108.57373973 29.84983289 103.60791016 28.72412109 C95.35926068 26.94366604 87.06298126 25.76945428 78.70556641 24.63037109 C75.59193977 24.19924292 72.47878817 23.76474932 69.36572266 23.32958984 C68.61592133 23.22519089 67.86612 23.12079193 67.09359741 23.01322937 C61.59454454 22.24270363 56.11802206 21.36897087 50.64306641 20.44287109 C43.14009367 19.2005341 35.62864245 18.49483054 28.04716492 17.91894531 C23.19657556 17.54142517 18.38551318 17.09588566 13.57128906 16.38745117 C-6.83142503 13.45077824 -27.2031874 13.71094771 -47.76763916 13.80780029 C-51.65139182 13.82127902 -55.53502842 13.81604564 -59.41879368 13.81067181 C-63.21881276 13.80730112 -67.01876345 13.81401734 -70.81876945 13.82380104 C-72.60496601 13.82758916 -74.39117023 13.82882856 -76.17737007 13.82721519 C-90.80001702 13.82500215 -104.85541989 15.1250282 -119.25927734 17.70068359 C-122.33568929 18.16488841 -125.37723888 18.37739903 -128.48193359 18.56787109 C-133.1029892 18.90862164 -136.02399414 19.87172374 -140.10693359 22.13037109 C-145.67178405 23.90978029 -151.31195798 25.34726628 -157.10693359 26.13037109 C-157.43693359 25.14037109 -157.76693359 24.15037109 -158.10693359 23.13037109 C-154.77360026 21.79703776 -151.44026693 20.46370443 -148.10693359 19.13037109 C-147.33961914 18.80649414 -146.57230469 18.48261719 -145.78173828 18.14892578 C-143.07834517 17.11948474 -140.45209339 16.41189992 -137.63427734 15.76318359 C-136.57982422 15.51930908 -135.52537109 15.27543457 -134.43896484 15.02416992 C-133.31876953 14.77046631 -132.19857422 14.5167627 -131.04443359 14.25537109 C-129.88427734 13.99071045 -128.72412109 13.7260498 -127.52880859 13.45336914 C-105.20754464 8.40253858 -82.91127573 4.20108586 -60.10693359 2.13037109 C-58.43244141 1.97761719 -58.43244141 1.97761719 -56.72412109 1.82177734 C-53.51983997 1.55543684 -50.31551567 1.33903824 -47.10693359 1.13037109 C-45.81424561 1.04553467 -44.52155762 0.96069824 -43.18969727 0.87329102 C-28.79861775 0.00969726 -14.41164841 -0.02402002 0 0 Z " fill="#025BD0" transform="translate(250.10693359375,86.86962890625)"/>
<path d="M0 0 C1.75708534 -0.01441132 1.75708534 -0.01441132 3.54966736 -0.02911377 C4.8204866 -0.03336365 6.09130585 -0.03761353 7.40063477 -0.04199219 C8.7002565 -0.04769226 9.99987823 -0.05339233 11.33888245 -0.05926514 C14.09197379 -0.06977272 16.84503595 -0.07561716 19.59814453 -0.07910156 C23.12687734 -0.08459012 26.65522502 -0.10862625 30.18383694 -0.13707352 C33.5477626 -0.16016771 36.91163388 -0.16214716 40.27563477 -0.16699219 C41.54442978 -0.17933899 42.81322479 -0.19168579 44.12046814 -0.20440674 C45.88228172 -0.19990509 45.88228172 -0.19990509 47.6796875 -0.1953125 C48.71512192 -0.19895813 49.75055634 -0.20260376 50.81736755 -0.20635986 C53.78751284 0.21553169 54.61771153 0.81217692 56.40454102 3.16113281 C57.56787109 5.07128906 57.56787109 5.07128906 58.67407227 7.22363281 C59.08496094 8.01511719 59.49584961 8.80660156 59.91918945 9.62207031 C60.34748047 10.45996094 60.77577148 11.29785156 61.21704102 12.16113281 C62.11358783 13.89060473 63.01072001 15.61977334 63.90844727 17.34863281 C64.33915527 18.18136719 64.76986328 19.01410156 65.21362305 19.87207031 C68.01026766 25.24749875 70.95622169 30.54272392 73.88891602 35.84472656 C84.40454102 54.9517256 84.40454102 54.9517256 84.40454102 58.16113281 C70.17943276 58.95564494 56.00988486 59.31140009 41.76391602 59.29394531 C39.77524809 59.29462166 37.78658025 59.29559441 35.7979126 59.29684448 C31.67703445 59.29830181 27.55617829 59.29622844 23.43530273 59.29150391 C18.173667 59.28576234 12.9120818 59.28912584 7.65044785 59.29507637 C3.56339133 59.29869709 -0.52365326 59.29753721 -4.61071014 59.29494858 C-6.55145016 59.29428583 -8.49219128 59.29508471 -10.43292999 59.29742813 C-13.13980474 59.29998467 -15.84659808 59.29607404 -18.5534668 59.29052734 C-19.73181847 59.29356369 -19.73181847 59.29356369 -20.93397522 59.29666138 C-26.22131718 59.27672137 -31.34804512 58.81713077 -36.59545898 58.16113281 C-34.38477205 48.84691732 -28.54813907 40.24730169 -24.07202148 31.82910156 C-22.34889865 28.58667355 -20.63643527 25.33888804 -18.93139648 22.08691406 C-18.26853638 20.8231897 -18.26853638 20.8231897 -17.59228516 19.53393555 C-16.74252971 17.91285631 -15.8936801 16.2913018 -15.04589844 14.66918945 C-7.37568141 0.04867513 -7.37568141 0.04867513 0 0 Z " fill="#015CD4" transform="translate(402.595458984375,322.8388671875)"/>
<path d="M0 0 C0.90840637 0.05867249 1.81681274 0.11734497 2.75274658 0.17779541 C13.29060473 0.87645777 23.66740937 1.96936841 34.09741211 3.634552 C39.7171723 4.5235247 45.28459872 5.06224179 50.96435547 5.42724609 C56.90300645 5.92611149 62.755947 6.98781866 68.625 8 C69.9238916 8.22002686 71.2227832 8.44005371 72.56103516 8.66674805 C83.10436643 10.4653364 93.59687232 12.48356194 104.0625 14.6875 C104.0625 15.6775 104.0625 16.6675 104.0625 17.6875 C103.30348389 17.62691406 102.54446777 17.56632812 101.76245117 17.50390625 C89.68553277 16.58705136 77.5939067 16.08760852 65.49487305 15.5625 C62.68007623 15.43964807 59.86542989 15.31369511 57.05078125 15.1875 C56.21090164 15.15205078 55.37102203 15.11660156 54.50569153 15.08007812 C50.20256346 14.8860732 45.92629451 14.59977466 41.63793945 14.19091797 C22.27096723 12.3621831 2.73838758 12.52454666 -16.69628906 12.55712891 C-20.14148809 12.56285982 -23.58661044 12.55940989 -27.03180695 12.55369186 C-41.69396577 12.53299494 -56.30722934 12.64468289 -70.9375 13.6875 C-72.71133057 13.81294189 -72.71133057 13.81294189 -74.52099609 13.94091797 C-77.57843714 14.17105774 -80.63283527 14.42331278 -83.6875 14.6875 C-84.6878125 14.77 -85.688125 14.8525 -86.71875 14.9375 C-90.81326145 15.28412531 -94.88779508 15.64552162 -98.953125 16.25 C-101.9375 16.6875 -101.9375 16.6875 -104.9375 16.6875 C-104.9375 17.3475 -104.9375 18.0075 -104.9375 18.6875 C-104.22956299 18.73237549 -103.52162598 18.77725098 -102.79223633 18.82348633 C-90.59167783 19.61478335 -78.41873011 20.43641035 -66.3125 22.1875 C-65.49241455 22.30585205 -64.6723291 22.4242041 -63.82739258 22.54614258 C-59.1632005 23.25590048 -54.58963615 24.19119062 -49.9921875 25.24560547 C-47.26066214 25.83306518 -44.52383033 26.17345594 -41.75 26.5 C-25.34447263 28.75487227 -7.23901389 32.21926228 8.0625 38.6875 C8.0625 39.6775 8.0625 40.6675 8.0625 41.6875 C2.90275146 41.13840385 -2.25674141 40.58698237 -7.41601562 40.03344727 C-9.16952872 39.84564019 -10.92310884 39.65845784 -12.67675781 39.47192383 C-15.20395699 39.20299656 -17.73090298 38.93179002 -20.2578125 38.66015625 C-21.03617462 38.57782242 -21.81453674 38.49548859 -22.6164856 38.41065979 C-25.71837318 38.07543179 -28.77367969 37.71714171 -31.84521484 37.16137695 C-36.2502185 36.48633257 -40.64423242 36.31607333 -45.09375 36.1328125 C-46.09531128 36.09076691 -47.09687256 36.04872131 -48.12878418 36.00540161 C-59.39099411 35.57414602 -70.65076485 35.53667957 -81.91992188 35.55712891 C-85.46228223 35.56253784 -89.00451821 35.55711733 -92.546875 35.55078125 C-107.82412165 35.54477646 -122.89750905 35.55450181 -137.9375 38.5625 C-138.81277344 38.72363281 -139.68804687 38.88476562 -140.58984375 39.05078125 C-145.746175 40.05103197 -150.17872766 41.47200012 -154.9375 43.6875 C-155.9275 43.996875 -156.9175 44.30625 -157.9375 44.625 C-163.29992982 46.5241939 -168.35904905 49.14561995 -171.9375 53.6875 C-172.73431318 56.32934541 -172.73431318 56.32934541 -172.9375 58.6875 C-176.19261789 58.12627278 -177.93590071 57.35629905 -179.9375 54.6875 C-181.67174438 50.35188905 -180.31798714 47.35944413 -178.62890625 43.26171875 C-178.40074219 42.74222656 -178.17257813 42.22273438 -177.9375 41.6875 C-178.60136719 41.831875 -179.26523438 41.97625 -179.94921875 42.125 C-180.83222656 42.310625 -181.71523437 42.49625 -182.625 42.6875 C-183.49511719 42.873125 -184.36523438 43.05875 -185.26171875 43.25 C-187.87462964 43.67722047 -190.29563038 43.76366201 -192.9375 43.6875 C-192.9375 42.3675 -192.9375 41.0475 -192.9375 39.6875 C-190.25183412 38.24648467 -187.56407941 36.80962053 -184.875 35.375 C-184.12283203 34.97087891 -183.37066406 34.56675781 -182.59570312 34.15039062 C-179.23345661 32.36010352 -175.92138459 30.68072582 -172.40625 29.203125 C-168.2154017 27.37198858 -164.40620588 25.11622552 -160.5 22.75 C-152.56007636 17.95730401 -144.9340406 13.7340561 -136 11.125 C-134.67809818 10.72882171 -133.3564853 10.33167816 -132.03515625 9.93359375 C-131.36798584 9.73491699 -130.70081543 9.53624023 -130.01342773 9.33154297 C-127.83649767 8.65616469 -125.69117566 7.91058117 -123.5390625 7.16015625 C-85.55975548 -5.53470754 -39.38930745 -2.59839384 0 0 Z M-110.9375 17.6875 C-106.9375 18.6875 -106.9375 18.6875 -106.9375 18.6875 Z M-116.9375 18.6875 C-116.9375 19.0175 -116.9375 19.3475 -116.9375 19.6875 C-115.2875 19.6875 -113.6375 19.6875 -111.9375 19.6875 C-111.9375 19.3575 -111.9375 19.0275 -111.9375 18.6875 C-113.5875 18.6875 -115.2375 18.6875 -116.9375 18.6875 Z " fill="#ECECEC" transform="translate(230.9375,106.3125)"/>
<path d="M0 0 C0.99 0.99 0.99 0.99 2 2 C2.94875 2.391875 3.8975 2.78375 4.875 3.1875 C14.35194468 7.12801754 23.59363834 12.87219619 31 20 C31 20.66 31 21.32 31 22 C27.02858911 21.51861686 24.33894851 20.03336084 20.9206543 18.03857422 C17.89039176 16.39999066 14.69082963 15.28687395 11.4375 14.1875 C10.71498047 13.93887207 9.99246094 13.69024414 9.24804688 13.43408203 C6.83576252 12.61115718 4.41873824 11.80374948 2 11 C1.12230957 10.70657715 0.24461914 10.4131543 -0.65966797 10.11083984 C-12.64310399 6.12773942 -24.58674067 2.36877327 -37 0 C-38.34481445 -0.27287842 -38.34481445 -0.27287842 -39.71679688 -0.55126953 C-86.3084652 -9.65866273 -137.50992497 -7.18512619 -180 15 C-180.94230469 15.47824219 -181.88460937 15.95648438 -182.85546875 16.44921875 C-190.94430976 20.74429848 -198.44143365 25.84980038 -206 31 C-213.63555511 36.09037007 -226.14208885 34.11793077 -235 34 C-234.67 33.01 -234.34 32.02 -234 31 C-233.01 31 -232.02 31 -231 31 C-231 30.34 -231 29.68 -231 29 C-228.98046875 27.5546875 -228.98046875 27.5546875 -226.1875 25.875 C-222.20071289 23.41571753 -218.37825078 20.86500095 -214.625 18.0625 C-209.68880597 14.42345923 -204.58526928 11.18268028 -199.3359375 8.015625 C-197.07516231 6.64962968 -194.83266817 5.27159697 -192.6015625 3.859375 C-137.84543814 -30.60252145 -57.21992843 -27.18455674 0 0 Z " fill="#ECECEC" transform="translate(453,47)"/>
<path d="M0 0 C2 1 4 2 6 3 C6 3.66 6 4.32 6 5 C7.32 5.66 8.64 6.32 10 7 C10 7.66 10 8.32 10 9 C10.99 9 11.98 9 13 9 C13.99 10.485 13.99 10.485 15 12 C18.95340974 12.67006945 20.57527447 12.2861787 23.921875 10.03125 C24.85515625 9.1959375 25.7884375 8.360625 26.75 7.5 C31.83333333 3 31.83333333 3 34 3 C34 2.34 34 1.68 34 1 C35.65 0.67 37.3 0.34 39 0 C38.67 0.99 38.34 1.98 38 3 C37.34 3 36.68 3 36 3 C35.690625 3.78375 35.38125 4.5675 35.0625 5.375 C34 8 34 8 33 10 C32.34 10 31.68 10 31 10 C30.67 11.32 30.34 12.64 30 14 C29.34 14 28.68 14 28 14 C27.690625 14.804375 27.38125 15.60875 27.0625 16.4375 C26 19 26 19 25 20 C24.52264055 24.29623506 25.69189755 26.44167539 28 30 C28 30.66 28 31.32 28 32 C28.66 32 29.32 32 30 32 C30.495 34.475 30.495 34.475 31 37 C28.25150795 36.57527743 26.13037122 36.0700991 23.66796875 34.74609375 C20.07133611 32.84865763 17.05015017 31.42849361 12.96289062 32.56787109 C7.35685499 34.84895638 1.29783695 37.70216305 -3 42 C-3.99 42 -4.98 42 -6 42 C-5.67 40.68 -5.34 39.36 -5 38 C-4.34 38 -3.68 38 -3 38 C-2.34 36.68 -1.68 35.36 -1 34 C-0.34 34 0.32 34 1 34 C1.2475 33.484375 1.495 32.96875 1.75 32.4375 C3 30 3 30 5.1875 26.8125 C7.21781123 23.2039091 7.41012565 20.53433473 6.76171875 16.4765625 C5.52414692 12.45286741 3.44937269 8.97049324 1.27734375 5.3828125 C0 3 0 3 0 0 Z " fill="#E6E6E6" transform="translate(122,53)"/>
<path d="M0 0 C-3.13498292 1.85776765 -5.37471432 2.20140476 -9 2 C-8.505 3.485 -8.505 3.485 -8 5 C-5.68756872 5.02742013 -3.37503906 5.04658282 -1.0625 5.0625 C0.22527344 5.07410156 1.51304687 5.08570312 2.83984375 5.09765625 C5.62606187 5.07669739 8.15973043 4.85431675 10.94921875 4.50390625 C17.47573957 3.71517106 24.04971454 3.85101495 30.61328125 3.86962891 C32.89069117 3.87503726 35.16790819 3.8696318 37.4453125 3.86328125 C38.89843793 3.86394124 40.35156325 3.86522077 41.8046875 3.8671875 C43.76897705 3.86887939 43.76897705 3.86887939 45.77294922 3.87060547 C49 4 49 4 52 5 C54.24840887 5.09548531 56.49956547 5.13073536 58.75 5.1328125 C59.73178223 5.13424759 59.73178223 5.13424759 60.73339844 5.13571167 C62.11523535 5.13639122 63.49707549 5.13455261 64.87890625 5.13037109 C66.99226054 5.1250196 69.10540231 5.13032361 71.21875 5.13671875 C72.56250047 5.13605793 73.9062508 5.13477668 75.25 5.1328125 C76.47203125 5.13168457 77.6940625 5.13055664 78.953125 5.12939453 C82.04438418 5.13836674 82.04438418 5.13836674 85 4 C85 4.66 85 5.32 85 6 C89.455 6.99 89.455 6.99 94 8 C94 8.33 94 8.66 94 9 C91.91674712 9.02773562 89.83337771 9.04671684 87.75 9.0625 C86.00976562 9.07990234 86.00976562 9.07990234 84.234375 9.09765625 C81.08266009 9.07318089 78.00047168 8.81797945 74.86499023 8.50439453 C66.55599585 7.79846602 58.25843325 7.83571102 49.92578125 7.83203125 C48.19003778 7.82880783 46.45429457 7.825443 44.71855164 7.82194519 C41.09532035 7.81599169 37.47211278 7.81410134 33.84887695 7.81469727 C29.25472115 7.81479861 24.66072085 7.80115801 20.06660175 7.78392506 C16.48446483 7.77268925 12.90236413 7.77078158 9.32021141 7.77130699 C7.62890272 7.77014378 5.93759256 7.76581803 4.24630165 7.75797462 C-10.14712145 7.69747295 -23.97487794 9.0351398 -38.15234375 11.5703125 C-41.2287557 12.03451732 -44.27030528 12.24702793 -47.375 12.4375 C-51.99605561 12.77825054 -54.91706055 13.74135264 -59 16 C-64.56485046 17.7794092 -70.20502439 19.21689519 -76 20 C-76.33 19.01 -76.66 18.02 -77 17 C-73.66666667 15.66666667 -70.33333333 14.33333333 -67 13 C-66.23268555 12.67612305 -65.46537109 12.35224609 -64.67480469 12.01855469 C-61.97141158 10.98911365 -59.3451598 10.28152882 -56.52734375 9.6328125 C-55.47248779 9.38885742 -54.41763184 9.14490234 -53.33081055 8.89355469 C-52.21101807 8.63993164 -51.09122559 8.38630859 -49.9375 8.125 C-48.78096924 7.86106445 -47.62443848 7.59712891 -46.43286133 7.32519531 C-5.68994596 -1.89664865 -5.68994596 -1.89664865 0 0 Z " fill="#104F9E" transform="translate(169,93)"/>
<path d="M0 0 C3.35204601 3.91699758 5.79634071 7.96891016 8.1875 12.5 C8.54263672 13.15097656 8.89777344 13.80195313 9.26367188 14.47265625 C11.11726195 17.95473248 12.49406687 21.0733548 13 25 C10.28043304 26.35978348 8.12953598 26.13468116 5.08496094 26.14526367 C3.84317078 26.15164352 2.60138062 26.15802338 1.32196045 26.16459656 C-0.04056764 26.16612567 -1.40309625 26.1672394 -2.765625 26.16796875 C-4.16086868 26.17118199 -5.55611201 26.17454611 -6.95135498 26.17805481 C-9.88017558 26.18404897 -12.80896667 26.18589454 -15.73779297 26.18530273 C-19.48137263 26.18520137 -23.22476151 26.19882518 -26.96829605 26.21607494 C-29.85258849 26.227226 -32.73683537 26.22922095 -35.62114716 26.22869301 C-37.00057378 26.22986954 -38.38000171 26.2342729 -39.75940704 26.24202538 C-41.6953739 26.25188255 -43.63139669 26.24766826 -45.56738281 26.24291992 C-47.21713104 26.24505745 -47.21713104 26.24505745 -48.90020752 26.24723816 C-52.20712133 25.98348009 -54.90754293 25.17226754 -58 24 C-58 23.67 -58 23.34 -58 23 C-36.22 22.67 -14.44 22.34 8 22 C8.495 20.515 8.495 20.515 9 19 C7.68 18.67 6.36 18.34 5 18 C2.88838269 8.58997722 2.88838269 8.58997722 2 4 C1.34 4 0.68 4 0 4 C0 2.68 0 1.36 0 0 Z " fill="#0859BC" transform="translate(557,356)"/>
<path d="M0 0 C11.5563419 3.60152259 21.54323738 9.54222785 31 17 C31.92683594 17.69738281 32.85367188 18.39476563 33.80859375 19.11328125 C34.53175781 19.73589844 35.25492187 20.35851562 36 21 C36 21.66 36 22.32 36 23 C32.71609538 22.60195096 30.71755682 21.83442986 27.828125 20.140625 C23.97438228 17.88886389 20.03244275 16.41807066 15.8125 15 C15.07652588 14.74653809 14.34055176 14.49307617 13.58227539 14.23193359 C11.39085592 13.4797868 9.19617956 12.73811828 7 12 C5.75476563 11.57976563 4.50953125 11.15953125 3.2265625 10.7265625 C0.48710854 9.80907317 -2.25452716 8.89928783 -5 8 C-4.52949219 7.56042969 -4.05898438 7.12085938 -3.57421875 6.66796875 C-1.65148339 4.63072806 -0.92123403 2.62197378 0 0 Z " fill="#DFDFDF" transform="translate(448,46)"/>
<path d="M0 0 C0.495 0.99 0.495 0.99 1 2 C-1.64 2.33 -4.28 2.66 -7 3 C-7 3.66 -7 4.32 -7 5 C-5.989375 4.814375 -4.97875 4.62875 -3.9375 4.4375 C-0.02085773 4.00231753 3.14244663 4.29146979 7 5 C7 5.33 7 5.66 7 6 C5.67609253 6.17390259 5.67609253 6.17390259 4.32543945 6.35131836 C1.03587296 6.78423007 -2.25348854 7.21864035 -5.54272461 7.65405273 C-6.96354429 7.84182412 -8.38444197 8.02900627 -9.80541992 8.21557617 C-11.85356342 8.48459677 -13.90141255 8.75576898 -15.94921875 9.02734375 C-17.17987061 9.18968506 -18.41052246 9.35202637 -19.6784668 9.51928711 C-24.15561158 10.16724728 -28.42380378 11.06017566 -32.75 12.375 C-33.61367187 12.63539062 -34.47734375 12.89578125 -35.3671875 13.1640625 C-38.61187576 14.19427509 -41.80627065 15.34774762 -44.9921875 16.546875 C-47.32888495 17.07422306 -48.74963718 16.74675717 -51 16 C-51 15.34 -51 14.68 -51 14 C-47.66666667 12.66666667 -44.33333333 11.33333333 -41 10 C-40.23993652 9.67757324 -39.47987305 9.35514648 -38.69677734 9.02294922 C-35.87447793 7.95238661 -33.11788402 7.23416748 -30.17578125 6.5625 C-28.50805664 6.17964844 -28.50805664 6.17964844 -26.80664062 5.7890625 C-25.65357422 5.52867188 -24.50050781 5.26828125 -23.3125 5 C-22.17876953 4.73960938 -21.04503906 4.47921875 -19.87695312 4.2109375 C-13.27046233 2.70305833 -6.65351869 1.28479134 0 0 Z " fill="#104685" transform="translate(143,96)"/>
<path d="M0 0 C2.54106009 2.20961747 3.30621489 3.73988358 4 7 C-10.22510826 7.79451213 -24.39465616 8.15026728 -38.640625 8.1328125 C-40.62929293 8.13348885 -42.61796077 8.1344616 -44.60662842 8.13571167 C-48.72750656 8.137169 -52.84836273 8.13509562 -56.96923828 8.13037109 C-62.23087401 8.12462952 -67.49245921 8.12799303 -72.75409317 8.13394356 C-76.84114969 8.13756428 -80.92819428 8.1364044 -85.01525116 8.13381577 C-86.95599117 8.13315301 -88.8967323 8.1339519 -90.83747101 8.13629532 C-93.54434575 8.13885185 -96.25113909 8.13494123 -98.95800781 8.12939453 C-100.13635948 8.13243088 -100.13635948 8.13243088 -101.33851624 8.13552856 C-106.6258582 8.11558856 -111.75258613 7.65599795 -117 7 C-116.67 5.68 -116.34 4.36 -116 3 C-115.67 3.99 -115.34 4.98 -115 6 C-76.72 5.67 -38.44 5.34 1 5 C0.505 2.525 0.505 2.525 0 0 Z " fill="#08366E" transform="translate(483,374)"/>
<path d="M0 0 C2.49361571 1.20381448 4.68143083 2.45428722 7 4 C7 4.66 7 5.32 7 6 C7.66 6 8.32 6 9 6 C10.32229189 8.64458379 10.09677194 10.67761301 10.0625 13.625 C10.05347656 14.62789062 10.04445313 15.63078125 10.03515625 16.6640625 C10.02355469 17.43492188 10.01195312 18.20578125 10 19 C9.19175781 18.98839844 8.38351562 18.97679688 7.55078125 18.96484375 C5.94783203 18.95130859 5.94783203 18.95130859 4.3125 18.9375 C2.72888672 18.92009766 2.72888672 18.92009766 1.11328125 18.90234375 C-1.72410262 18.99134575 -4.2438919 19.35060162 -7 20 C-7 16 -7 16 -5.1875 13.9375 C-2.03451868 9.70349651 -1.17608773 5.08747041 0 0 Z " fill="#DFDFE0" transform="translate(456,67)"/>
<path d="M0 0 C0.75 1.625 0.75 1.625 1 4 C-0.3449707 7.10961914 -0.3449707 7.10961914 -3 10 C-6.40497547 10.87025823 -9.73477476 10.72102298 -13.23046875 10.62109375 C-14.75411797 10.61252853 -14.75411797 10.61252853 -16.30854797 10.60379028 C-19.60259845 10.5776479 -22.89413696 10.50848074 -26.1875 10.4375 C-28.42966131 10.40981875 -30.67185098 10.38434538 -32.9140625 10.36108398 C-39.27724016 10.28452099 -45.638232 10.15220648 -52 10 C-53.23197113 9.97202332 -53.23197113 9.97202332 -54.48883057 9.94348145 C-76.56511988 9.43488012 -76.56511988 9.43488012 -78 8 C-79.41327947 7.84379445 -80.8335459 7.74943827 -82.25390625 7.68359375 C-83.10791016 7.64169922 -83.96191406 7.59980469 -84.84179688 7.55664062 C-85.73962891 7.51732422 -86.63746094 7.47800781 -87.5625 7.4375 C-88.46419922 7.39431641 -89.36589844 7.35113281 -90.29492188 7.30664062 C-92.52978485 7.20021858 -94.76476308 7.09820012 -97 7 C-97.33 6.01 -97.66 5.02 -98 4 C-94.93722733 4.14126626 -91.87486458 4.28784396 -88.8125 4.4375 C-87.94818359 4.47681641 -87.08386719 4.51613281 -86.19335938 4.55664062 C-84.93168945 4.61948242 -84.93168945 4.61948242 -83.64453125 4.68359375 C-82.87471924 4.72025146 -82.10490723 4.75690918 -81.31176758 4.79467773 C-79 5 -79 5 -76.71459961 5.48681641 C-73.13222595 6.16404902 -69.55547986 6.34527797 -65.921875 6.52734375 C-65.13592957 6.56866928 -64.34998413 6.60999481 -63.54022217 6.65257263 C-55.28011388 7.06788278 -47.01634767 7.30567844 -38.74853516 7.50268555 C-36.23720614 7.56280628 -33.7260358 7.62778855 -31.21484375 7.69335938 C-21.80722766 7.93141753 -12.411166 8.06067371 -3 8 C-2.67 6.35 -2.34 4.7 -2 3 C-1.34 3 -0.68 3 0 3 C0 2.01 0 1.02 0 0 Z " fill="#104393" transform="translate(494,92)"/>
<path d="M0 0 C3.94574799 0.65159141 7.85435393 1.50863005 11.75 2.41015625 C14.61814188 2.83954377 17.37222827 2.78740056 20.265625 2.75170898 C24.05599996 2.85780199 27.72189149 3.59771223 31.4375 4.3125 C32.21222656 4.45558594 32.98695313 4.59867187 33.78515625 4.74609375 C35.67045579 5.09522329 37.55415939 5.45295316 39.4375 5.8125 C39.4375 6.8025 39.4375 7.7925 39.4375 8.8125 C36.40589358 8.59955907 33.37468873 8.38246684 30.34375 8.16015625 C26.40756729 7.8749873 22.46975369 7.62204549 18.53125 7.37109375 C16.06248498 7.2059535 13.5937351 7.04058688 11.125 6.875 C9.90192139 6.80039551 8.67884277 6.72579102 7.41870117 6.64892578 C6.27377197 6.57013184 5.12884277 6.49133789 3.94921875 6.41015625 C2.91240967 6.34320557 1.87560059 6.27625488 0.80737305 6.20727539 C-0.36571411 6.01186157 -0.36571411 6.01186157 -1.5625 5.8125 C-1.8925 5.1525 -2.2225 4.4925 -2.5625 3.8125 C-4.58713255 3.16036708 -4.58713255 3.16036708 -6.5625 2.8125 C-4.6064087 -0.24389265 -3.68520618 -0.19395822 0 0 Z " fill="#F4F4F4" transform="translate(295.5625,115.1875)"/>
<path d="M0 0 C0.66 0.33 1.32 0.66 2 1 C0.56542672 1.9834496 -0.87277406 2.96160921 -2.3125 3.9375 C-3.11300781 4.48277344 -3.91351563 5.02804688 -4.73828125 5.58984375 C-7 7 -7 7 -10 8 C-10.33 8.66 -10.66 9.32 -11 10 C-11.66 10 -12.32 10 -13 10 C-13 11.65 -13 13.3 -13 15 C-13.94359375 15.10248047 -13.94359375 15.10248047 -14.90625 15.20703125 C-15.5971875 15.46871094 -16.288125 15.73039063 -17 16 C-18.00148771 18.11562348 -18.00148771 18.11562348 -18.5 20.6875 C-19.66229932 25.15250776 -21.3284974 28.20818985 -24 32 C-24.33 33.010625 -24.66 34.02125 -25 35.0625 C-26.13907657 38.40853743 -27.54478362 40.47038313 -30 43 C-30.99 43 -31.98 43 -33 43 C-30.90963909 36.15509271 -27.48649231 30.21855457 -24 24 C-23.48953125 23.08089844 -22.9790625 22.16179687 -22.453125 21.21484375 C-17.01715327 11.76034454 -10.67945309 3.5598177 0 0 Z " fill="#045CCB" transform="translate(407,145)"/>
<path d="M0 0 C18.80259111 3.5358855 18.80259111 3.5358855 27 7 C27 7.99 27 8.98 27 10 C8.685 8.02 8.685 8.02 -10 6 C-10 5.67 -10 5.34 -10 5 C-6.04 5 -2.08 5 2 5 C1.34 3.35 0.68 1.7 0 0 Z " fill="#A9A9A9" transform="translate(212,138)"/>
<path d="M0 0 C0.33 0 0.66 0 1 0 C1.35024876 5.34129353 1.35024876 5.34129353 1 8 C-0.875 9.625 -0.875 9.625 -3 11 C-4.22520264 14.00847418 -4.22520264 14.00847418 -5 17 C-5.33 17.66 -5.66 18.32 -6 19 C-6.66 19 -7.32 19 -8 19 C-8 19.99 -8 20.98 -8 22 C-8.66 22 -9.32 22 -10 22 C-10.0825 22.94875 -10.165 23.8975 -10.25 24.875 C-10.4975 25.90625 -10.745 26.9375 -11 28 C-11.99 28.4640625 -11.99 28.4640625 -13 28.9375 C-13.66 29.288125 -14.32 29.63875 -15 30 C-15.67673447 33.40320934 -15.67673447 33.40320934 -16 37 C-17.0625 39.4375 -17.0625 39.4375 -18 41 C-18.66 41 -19.32 41 -20 41 C-20.226875 42.2375 -20.45375 43.475 -20.6875 44.75 C-21.7005094 48.92034525 -23.31959133 50.67553136 -27 53 C-27 49.79922427 -26.57166626 48.88328007 -25.0234375 46.19140625 C-24.39260254 45.07958984 -24.39260254 45.07958984 -23.74902344 43.9453125 C-23.2955957 43.15898437 -22.84216797 42.37265625 -22.375 41.5625 C-19.36913712 36.26474588 -16.42088329 30.97745316 -13.75 25.5 C-11.54658796 20.9938672 -9.08419568 16.73875867 -6.45703125 12.46875 C-4.07304036 8.42938742 -2.0316049 4.22501905 0 0 Z " fill="#0A4AA1" transform="translate(329,268)"/>
<path d="M0 0 C0.33 0.66 0.66 1.32 1 2 C0.360625 2.28875 -0.27875 2.5775 -0.9375 2.875 C-3.15206079 3.82823451 -3.15206079 3.82823451 -4 6 C-4.66 6 -5.32 6 -6 6 C-6.21081851 9.89459074 -6.21081851 9.89459074 -5 13 C-5.99 13.99 -6.98 14.98 -8 16 C-8 15.01 -8 14.02 -8 13 C-8.66386719 13.144375 -9.32773437 13.28875 -10.01171875 13.4375 C-10.89472656 13.623125 -11.77773438 13.80875 -12.6875 14 C-13.99267578 14.2784375 -13.99267578 14.2784375 -15.32421875 14.5625 C-17.93712964 14.98972047 -20.35813038 15.07616201 -23 15 C-23 13.68 -23 12.36 -23 11 C-20.29466468 9.53586529 -17.58599307 8.07859168 -14.875 6.625 C-14.11445312 6.2125 -13.35390625 5.8 -12.5703125 5.375 C-8.4541422 3.17497794 -4.50519306 1.30981651 0 0 Z " fill="#D7D7D7" transform="translate(61,135)"/>
<path d="M0 0 C-3.13498292 1.85776765 -5.37471432 2.20140476 -9 2 C-8.67 3.32 -8.34 4.64 -8 6 C-9.32 6 -10.64 6 -12 6 C-12 6.66 -12 7.32 -12 8 C-18.93 8 -25.86 8 -33 8 C-33 7.34 -33 6.68 -33 6 C-30.36 5.67 -27.72 5.34 -25 5 C-25 4.34 -25 3.68 -25 3 C-5.13861386 -1.71287129 -5.13861386 -1.71287129 0 0 Z " fill="#0854BB" transform="translate(169,93)"/>
<path d="M0 0 C8.36550878 3.95460415 16.17758968 8.70239048 23 15 C23 15.66 23 16.32 23 17 C19.14656685 16.53291719 16.53444403 15.17955184 13.24609375 13.1875 C8.39615694 10.62335949 3.14251943 8.88687931 -2 7 C-1.01 6.34 -0.02 5.68 1 5 C0.67 3.35 0.34 1.7 0 0 Z " fill="#ABABAB" transform="translate(461,52)"/>
<path d="M0 0 C-1.49746706 3.88997191 -3.70422078 5.46948052 -7.125 7.75 C-8.03507813 8.36359375 -8.94515625 8.9771875 -9.8828125 9.609375 C-10.58148437 10.06828125 -11.28015625 10.5271875 -12 11 C-12.33 10.34 -12.66 9.68 -13 9 C-12.34 9 -11.68 9 -11 9 C-11.33 8.01 -11.66 7.02 -12 6 C-17.32170494 5.70437633 -17.32170494 5.70437633 -22 8 C-25.13671875 8.4140625 -25.13671875 8.4140625 -28.6875 8.625 C-30.45673828 8.73714844 -30.45673828 8.73714844 -32.26171875 8.8515625 C-33.61716797 8.92503906 -33.61716797 8.92503906 -35 9 C-35 8.34 -35 7.68 -35 7 C-28.09040905 5.37548802 -21.18444833 3.81687496 -14.21484375 2.47265625 C-12.18211705 2.03886449 -10.18101791 1.46325119 -8.1875 0.875 C-5.2684117 0.07368164 -3.00110726 -0.18188529 0 0 Z " fill="#0C4EA4" transform="translate(562,91)"/>
<path d="M0 0 C0.66 0.33 1.32 0.66 2 1 C2.625 3.5625 2.625 3.5625 3 6 C0.25334611 7.37332694 -1.93624068 7.11964892 -5.01025391 7.11352539 C-6.27141022 7.11344986 -7.53256653 7.11337433 -8.8319397 7.11329651 C-10.21348103 7.10818949 -11.59502196 7.10297349 -12.9765625 7.09765625 C-14.3861791 7.09579144 -15.79579634 7.09436783 -17.20541382 7.09336853 C-20.91753932 7.08954833 -24.62962578 7.07972228 -28.34173584 7.06866455 C-32.12886019 7.05843975 -35.91599083 7.05386862 -39.703125 7.04882812 C-47.13543448 7.03809958 -54.56771177 7.02102911 -62 7 C-62 6.67 -62 6.34 -62 6 C-55.429174 4.80039879 -48.94955626 4.87286734 -42.28515625 4.90234375 C-41.07427841 4.9037587 -39.86340057 4.90517365 -38.61582947 4.90663147 C-34.76469406 4.91220974 -30.91361771 4.9247583 -27.0625 4.9375 C-24.4446623 4.94251781 -21.82682369 4.94708022 -19.20898438 4.95117188 C-12.80596958 4.96217206 -6.40298901 4.97888856 0 5 C0 3.35 0 1.7 0 0 Z " fill="#063063" transform="translate(567,375)"/>
<path d="M0 0 C1.81293089 0.14037521 3.6253443 0.28744889 5.4375 0.4375 C6.95150391 0.55931641 6.95150391 0.55931641 8.49609375 0.68359375 C11 1 11 1 12 2 C20.93579667 3.28789952 29.99738793 3.11068785 39 3 C39.495 3.99 39.495 3.99 40 5 C42.82716765 5.42451735 45.5943039 5.75055631 48.4375 6 C56.73119964 6.73119964 56.73119964 6.73119964 59 9 C28.29949239 7.64974619 28.29949239 7.64974619 23 5 C21.51617095 4.81629639 20.0262851 4.67999585 18.53515625 4.5703125 C17.65279297 4.49683594 16.77042969 4.42335938 15.86132812 4.34765625 C13.99992707 4.1995755 12.1379206 4.05891233 10.27539062 3.92578125 C9.39173828 3.84972656 8.50808594 3.77367188 7.59765625 3.6953125 C6.78820557 3.63359863 5.97875488 3.57188477 5.14477539 3.50830078 C2.60863744 2.90724908 1.64512914 1.97600975 0 0 Z " fill="#0D438E" transform="translate(397,121)"/>
<path d="M0 0 C3 1 3 1 5 4 C8.08365871 4.2502157 8.08365871 4.2502157 11 4 C10.566875 4.7734375 10.566875 4.7734375 10.125 5.5625 C8.71219973 8.62356725 7.8751483 11.74944918 7 15 C6.01 15 5.02 15 4 15 C4 14.34 4 13.68 4 13 C1.36 12.67 -1.28 12.34 -4 12 C-3.34 10.68 -2.68 9.36 -2 8 C-1.34 8 -0.68 8 0 8 C0 5.36 0 2.72 0 0 Z " fill="#B7B7B7" transform="translate(107,29)"/>
<path d="M0 0 C0 0.99 0 1.98 0 3 C-8.8803456 3.83614925 -17.60579663 4.08703902 -26.51953125 3.87890625 C-27.74411545 3.85529526 -28.96869965 3.83168427 -30.23039246 3.80735779 C-34.0912393 3.73158957 -37.95183982 3.64719853 -41.8125 3.5625 C-44.45116035 3.50919209 -47.08983225 3.45645252 -49.72851562 3.40429688 C-56.15249175 3.276094 -62.57628908 3.14083648 -69 3 C-68.67 2.34 -68.34 1.68 -68 1 C-66.10447388 1.00785522 -66.10447388 1.00785522 -64.1706543 1.01586914 C-59.38631934 1.03426149 -54.60198735 1.04555422 -49.81762695 1.05493164 C-47.7648872 1.05989498 -45.71215084 1.06666782 -43.65942383 1.07543945 C-31.64756555 1.12540314 -19.70481007 0.96189993 -7.71411133 0.21655273 C-5.14608921 0.06682319 -2.57238343 0 0 0 Z " fill="#094691" transform="translate(338,378)"/>
<path d="M0 0 C2 1 4 2 6 3 C6 3.66 6 4.32 6 5 C7.32 5.66 8.64 6.32 10 7 C10 7.66 10 8.32 10 9 C10.99 9 11.98 9 13 9 C14.0625 10.8125 14.0625 10.8125 15 13 C14.67 13.99 14.34 14.98 14 16 C13.21625 15.979375 12.4325 15.95875 11.625 15.9375 C9.01885039 15.81315937 9.01885039 15.81315937 7 17 C5.82592979 14.73272667 4.66060261 12.46165376 3.5 10.1875 C3.16613281 9.54490234 2.83226563 8.90230469 2.48828125 8.24023438 C0.99760916 5.30452301 0 3.33873483 0 0 Z " fill="#D7D7D7" transform="translate(122,53)"/>
<path d="M0 0 C-6.21684439 2.61107465 -12.41443729 4.03542327 -19.0234375 5.3515625 C-21.91001094 5.85226324 -21.91001094 5.85226324 -24 7 C-33.62469117 8.22965297 -43.31896164 8.11184768 -53 8 C-52.67 7.34 -52.34 6.68 -52 6 C-49.33203125 5.60522461 -49.33203125 5.60522461 -45.8125 5.40234375 C-43.92917969 5.28342773 -43.92917969 5.28342773 -42.0078125 5.16210938 C-40.67191097 5.08660047 -39.33597272 5.01173868 -38 4.9375 C-35.39540798 4.78582824 -32.79150962 4.62659178 -30.1875 4.46484375 C-28.44533203 4.36610962 -28.44533203 4.36610962 -26.66796875 4.26538086 C-24.08142997 4.29264478 -24.08142997 4.29264478 -23 3 C-20.66702567 2.95907063 -18.33294775 2.95758277 -16 3 C-16 2.34 -16 1.68 -16 1 C-14.948125 1.04125 -13.89625 1.0825 -12.8125 1.125 C-7.87129099 0.96299315 -4.80982417 -1.44801022 0 0 Z " fill="#0D4898" transform="translate(514,122)"/>
<path d="M0 0 C7.425 0.99 7.425 0.99 15 2 C15.66 3.98 16.32 5.96 17 8 C11.06 8 5.12 8 -1 8 C0.32 6.68 1.64 5.36 3 4 C2.01 2.68 1.02 1.36 0 0 Z " fill="#C6C6C6" transform="translate(197,135)"/>
<path d="M0 0 C0 7.83548263 -6.59017954 16.12758147 -10.609375 22.6640625 C-12.60747333 26.02041869 -14.30600096 29.48169431 -16 33 C-16.33 33 -16.66 33 -17 33 C-17 31.02 -17 29.04 -17 27 C-16.67 27 -16.34 27 -16 27 C-15.67 25.35 -15.34 23.7 -15 22 C-14.01 22 -13.02 22 -12 22 C-12 20.68 -12 19.36 -12 18 C-11.34 18 -10.68 18 -10 18 C-9.67 15.69 -9.34 13.38 -9 11 C-8.01 11.33 -7.02 11.66 -6 12 C-5.67 10.02 -5.34 8.04 -5 6 C-4.34 6 -3.68 6 -3 6 C-3 4.68 -3 3.36 -3 2 C-2.01 1.34 -1.02 0.68 0 0 Z " fill="#0B49A3" transform="translate(372,314)"/>
<path d="M0 0 C2.77132017 0.30859025 5.54199986 0.6217033 8.3125 0.9375 C9.49102539 1.06801758 9.49102539 1.06801758 10.69335938 1.20117188 C11.45068359 1.28818359 12.20800781 1.37519531 12.98828125 1.46484375 C13.68477783 1.543396 14.38127441 1.62194824 15.09887695 1.70288086 C17 2 17 2 20 3 C20 3.99 20 4.98 20 6 C18.77990234 5.90912109 18.77990234 5.90912109 17.53515625 5.81640625 C8.02795587 5.12127911 -1.48298889 4.54152485 -11 4 C-11 3.67 -11 3.34 -11 3 C-5.555 2.505 -5.555 2.505 0 2 C0 1.34 0 0.68 0 0 Z " fill="#AEAEAE" transform="translate(315,118)"/>
<path d="M0 0 C0.66 0.33 1.32 0.66 2 1 C0.56542672 1.9834496 -0.87277406 2.96160921 -2.3125 3.9375 C-3.11300781 4.48277344 -3.91351563 5.02804688 -4.73828125 5.58984375 C-7 7 -7 7 -10 8 C-10.33 8.66 -10.66 9.32 -11 10 C-11.66 10 -12.32 10 -13 10 C-13 11.65 -13 13.3 -13 15 C-13.61875 15.061875 -14.2375 15.12375 -14.875 15.1875 C-17.25602845 15.82051688 -17.25602845 15.82051688 -18.1875 18.4375 C-18.5896875 19.7059375 -18.5896875 19.7059375 -19 21 C-19.33 21.66 -19.66 22.32 -20 23 C-20.66 23 -21.32 23 -22 23 C-19.81671997 13.53911988 -12.99501442 7.51839477 -5.234375 2.3125 C-3 1 -3 1 0 0 Z " fill="#0D438E" transform="translate(407,145)"/>
<path d="M0 0 C3.85865969 1.45936488 5.00320762 3.26600121 6.75 6.9375 C7.17796875 7.81277344 7.6059375 8.68804687 8.046875 9.58984375 C9 12 9 12 9 15 C9.66 15 10.32 15 11 15 C11.26554687 15.63808594 11.53109375 16.27617187 11.8046875 16.93359375 C12.15789062 17.75988281 12.51109375 18.58617187 12.875 19.4375 C13.39707031 20.67306641 13.39707031 20.67306641 13.9296875 21.93359375 C14.8244937 24.15746715 14.8244937 24.15746715 17 25 C17 27.31 17 29.62 17 32 C15.53904206 29.8085631 14.27218593 27.72399781 13.046875 25.41015625 C12.67747803 24.7133374 12.30808105 24.01651855 11.92749023 23.29858398 C11.53891846 22.56067627 11.15034668 21.82276855 10.75 21.0625 C10.35176025 20.308479 9.95352051 19.55445801 9.54321289 18.77758789 C6.27174235 12.56238736 3.0973397 6.30399727 0 0 Z " fill="#09479C" transform="translate(482,347)"/>
<path d="M0 0 C2.46800047 1.15173355 4.04783565 2.04783565 6 4 C2.94900596 7.32366742 -0.23449516 9.54224226 -4.125 11.8125 C-5.17945313 12.43769531 -6.23390625 13.06289062 -7.3203125 13.70703125 C-8.64675781 14.34705078 -8.64675781 14.34705078 -10 15 C-10.66 14.67 -11.32 14.34 -12 14 C-11.01 13.67 -10.02 13.34 -9 13 C-9 12.01 -9 11.02 -9 10 C-7.35 10 -5.7 10 -4 10 C-4 9.34 -4 8.68 -4 8 C-3.34 8 -2.68 8 -2 8 C-2.226875 7.4225 -2.45375 6.845 -2.6875 6.25 C-3 4 -3 4 -1.5625 1.75 C-1.046875 1.1725 -0.53125 0.595 0 0 Z " fill="#0556C1" transform="translate(541,99)"/>
<path d="M0 0 C1.2872642 2.5745284 1.34791629 4.14708645 1 7 C-0.9375 8.625 -0.9375 8.625 -3 10 C-3.33 10.99 -3.66 11.98 -4 13 C8.54 13 21.08 13 34 13 C34 13.33 34 13.66 34 14 C21.13 14 8.26 14 -5 14 C-5 9.52774917 -4.99959621 8.36223634 -3.0625 4.75 C-2.52302734 3.72132813 -2.52302734 3.72132813 -1.97265625 2.671875 C-1 1 -1 1 0 0 Z " fill="#0A5CC4" transform="translate(373,366)"/>
<path d="M0 0 C1.98 0.66 3.96 1.32 6 2 C6 6 6 6 4.5 7.75 C4.005 8.1625 3.51 8.575 3 9 C4.32 9.33 5.64 9.66 7 10 C4.18185434 11.40907283 2.82722796 10.50872691 -0.125 9.5625 C-1.03507812 9.27503906 -1.94515625 8.98757812 -2.8828125 8.69140625 C-3.58148438 8.46324219 -4.28015625 8.23507813 -5 8 C-4.52949219 7.56042969 -4.05898438 7.12085938 -3.57421875 6.66796875 C-1.65148339 4.63072806 -0.92123403 2.62197378 0 0 Z " fill="#C5C5C5" transform="translate(448,46)"/>
<path d="M0 0 C1 3 1 3 0 7 C13.86 7 27.72 7 42 7 C42 7.33 42 7.66 42 8 C27.15 8 12.3 8 -3 8 C-2 3 -2 3 0 0 Z " fill="#095EC5" transform="translate(273,372)"/>
<path d="M0 0 C0.66 0.99 1.32 1.98 2 3 C4.12694665 3.41527124 4.12694665 3.41527124 6.5703125 3.29296875 C7.91416016 3.2784668 7.91416016 3.2784668 9.28515625 3.26367188 C10.22230469 3.23853516 11.15945312 3.21339844 12.125 3.1875 C13.54232422 3.16719727 13.54232422 3.16719727 14.98828125 3.14648438 C17.32608779 3.11106306 19.66276237 3.06167271 22 3 C17.26756362 7.73243638 6.55958842 6.05608782 0.25 6.0625 C-1.83337771 6.04671684 -3.91674712 6.02773562 -6 6 C-5.67 5.01 -5.34 4.02 -5 3 C-4.01 3 -3.02 3 -2 3 C-2 2.34 -2 1.68 -2 1 C-1.34 0.67 -0.68 0.34 0 0 Z " fill="#A7ADAD" transform="translate(224,75)"/>
<path d="M0 0 C0.66 0 1.32 0 2 0 C0.65895923 5.09595491 -1.77628515 9.12597125 -4.5625 13.53515625 C-5.97944202 15.96474977 -7.02359511 18.36652336 -8 21 C-8.66 21 -9.32 21 -10 21 C-10.33 22.98 -10.66 24.96 -11 27 C-11.33 27 -11.66 27 -12 27 C-12 24.36 -12 21.72 -12 19 C-11.01 18.67 -10.02 18.34 -9 18 C-8.896875 17.21625 -8.79375 16.4325 -8.6875 15.625 C-8 13 -8 13 -5 11 C-4.21011855 9.04614933 -4.21011855 9.04614933 -3.8125 6.875 C-3.544375 5.59625 -3.27625 4.3175 -3 3 C-2.01 3 -1.02 3 0 3 C0 2.01 0 1.02 0 0 Z " fill="#08377D" transform="translate(415,233)"/>
<path d="M0 0 C2.9401631 2.54521582 4.36994433 5.40331293 6.0625 8.875 C6.82240234 10.41800781 6.82240234 10.41800781 7.59765625 11.9921875 C10.13837917 17.44164891 10.13837917 17.44164891 11 20 C10.125 22.3125 10.125 22.3125 9 24 C9 21.69 9 19.38 9 17 C7.35 16.67 5.7 16.34 4 16 C3.87882812 15.38511719 3.75765625 14.77023438 3.6328125 14.13671875 C3.46523438 13.32847656 3.29765625 12.52023438 3.125 11.6875 C2.96257812 10.88699219 2.80015625 10.08648437 2.6328125 9.26171875 C2.05521001 6.74698882 2.05521001 6.74698882 0 4 C0 2.68 0 1.36 0 0 Z " fill="#0947A1" transform="translate(463,182)"/>
<path d="M0 0 C0.33 0.66 0.66 1.32 1 2 C-1.64 2.33 -4.28 2.66 -7 3 C-7 3.66 -7 4.32 -7 5 C-5.4840625 4.7215625 -5.4840625 4.7215625 -3.9375 4.4375 C-0.02085773 4.00231753 3.14244663 4.29146979 7 5 C7 5.33 7 5.66 7 6 C4.93827387 6.33808686 2.8755797 6.67027361 0.8125 7 C-0.91033203 7.2784375 -0.91033203 7.2784375 -2.66796875 7.5625 C-5.50415393 7.93489477 -8.14719564 8.08596021 -11 8 C-10.34 7.67 -9.68 7.34 -9 7 C-9 6.01 -9 5.02 -9 4 C-10.98 4.33 -12.96 4.66 -15 5 C-15 4.34 -15 3.68 -15 3 C-13.865625 2.855625 -12.73125 2.71125 -11.5625 2.5625 C-8.19222799 2.38828522 -8.19222799 2.38828522 -7 1 C-4.67182036 0.63239269 -2.3381615 0.29758419 0 0 Z " fill="#0D3E81" transform="translate(143,96)"/>
<path d="M0 0 C11.11856481 -0.36520833 21.96485916 0.76776094 33 2 C33 2.33 33 2.66 33 3 C28.94328317 3.07431978 24.88683154 3.12868133 20.82958984 3.16479492 C19.45028782 3.17985422 18.07103347 3.20030613 16.69189453 3.22631836 C14.70626597 3.26282415 12.72028382 3.27814853 10.734375 3.29296875 C9.54038086 3.3086792 8.34638672 3.32438965 7.11621094 3.34057617 C3.76506629 2.97432368 2.42414608 2.2746046 0 0 Z " fill="#0B4696" transform="translate(297,88)"/>
<path d="M0 0 C4.38145801 4.88701086 10 12.24827894 10 19 C8.35 18.67 6.7 18.34 5 18 C2.88838269 8.58997722 2.88838269 8.58997722 2 4 C1.34 4 0.68 4 0 4 C0 2.68 0 1.36 0 0 Z " fill="#0758C8" transform="translate(557,356)"/>
<path d="M0 0 C2.0625 0.4375 2.0625 0.4375 4 1 C3.01 1.495 3.01 1.495 2 2 C3.65 2.33 5.3 2.66 7 3 C7 3.33 7 3.66 7 4 C-4.52164009 7.25968109 -4.52164009 7.25968109 -10 8 C-10.33 7.01 -10.66 6.02 -11 5 C-9.93458984 4.58427734 -9.93458984 4.58427734 -8.84765625 4.16015625 C-7.46900391 3.61681641 -7.46900391 3.61681641 -6.0625 3.0625 C-5.14597656 2.70285156 -4.22945313 2.34320313 -3.28515625 1.97265625 C-1.07581467 1.2003782 -1.07581467 1.2003782 0 0 Z " fill="#173A6A" transform="translate(103,105)"/>
<path d="M0 0 C0.33 0.99 0.66 1.98 1 3 C4.465 2.505 4.465 2.505 8 2 C6.56011056 4.87977887 4.49865762 5.54708125 1.6875 7.0625 C0.72199219 7.58972656 -0.24351563 8.11695312 -1.23828125 8.66015625 C-3.54501681 9.77926558 -5.49950786 10.51890769 -8 11 C-7.67 9.68 -7.34 8.36 -7 7 C-6.34 7 -5.68 7 -5 7 C-4.34 5.68 -3.68 4.36 -3 3 C-2.34 3 -1.68 3 -1 3 C-0.67 2.01 -0.34 1.02 0 0 Z " fill="#7A7A7B" transform="translate(124,84)"/>
<path d="M0 0 C2.66666667 2 5.33333333 4 8 6 C8.74765625 6.51949219 9.4953125 7.03898437 10.265625 7.57421875 C10.83796875 8.04472656 11.4103125 8.51523438 12 9 C12 9.66 12 10.32 12 11 C7.93246965 10.50696602 5.09479691 9.05760185 1.6484375 6.98828125 C-0.18732107 5.88769613 -2.07088095 4.92597714 -4 4 C-2.68 4 -1.36 4 0 4 C0 2.68 0 1.36 0 0 Z " fill="#A9A9A9" transform="translate(472,58)"/>
<path d="M0 0 C0.99 0 1.98 0 3 0 C1.34229667 4.49324849 -0.84982162 8.61186146 -3.125 12.8125 C-3.49753906 13.50537109 -3.87007813 14.19824219 -4.25390625 14.91210938 C-5.16690377 16.60934836 -6.08312716 18.30485138 -7 20 C-7.33 20 -7.66 20 -8 20 C-8 18.02 -8 16.04 -8 14 C-7.34 14 -6.68 14 -6 14 C-6 13.01 -6 12.02 -6 11 C-5.34 11 -4.68 11 -4 11 C-4.185625 10.21625 -4.37125 9.4325 -4.5625 8.625 C-5 6 -5 6 -4 4 C-3.01 4 -2.02 4 -1 4 C-0.67 2.68 -0.34 1.36 0 0 Z " fill="#0A489E" transform="translate(381,294)"/>
<path d="M0 0 C0.33 0.66 0.66 1.32 1 2 C3.82716765 2.42451735 6.5943039 2.75055631 9.4375 3 C17.73119964 3.73119964 17.73119964 3.73119964 20 6 C17.08252927 5.8859425 14.16655505 5.75919732 11.25 5.625 C10.425 5.5940625 9.6 5.563125 8.75 5.53125 C7.95078125 5.49257812 7.1515625 5.45390625 6.328125 5.4140625 C5.5949707 5.3826416 4.86181641 5.3512207 4.10644531 5.31884766 C1.74221559 4.96097978 0.10218038 4.11189706 -2 3 C-4.58532701 2.54935368 -4.58532701 2.54935368 -7.25 2.375 C-8.14203125 2.30023438 -9.0340625 2.22546875 -9.953125 2.1484375 C-10.96632813 2.07496094 -10.96632813 2.07496094 -12 2 C-12 1.67 -12 1.34 -12 1 C-7.915021 0.45533613 -4.1274515 0 0 0 Z " fill="#104EA2" transform="translate(436,124)"/>
<path d="M0 0 C3.04239245 0.11446625 6.08344669 0.24120733 9.125 0.375 C9.9809375 0.4059375 10.836875 0.436875 11.71875 0.46875 C16.4875872 0.68885018 20.51576807 1.19160483 25 3 C25 3.33 25 3.66 25 4 C17.08 3.67 9.16 3.34 1 3 C0.67 2.01 0.34 1.02 0 0 Z " fill="#0B4494" transform="translate(396,96)"/>
<path d="M0 0 C2.67438936 2.38335287 4.15158012 4.87036148 5.75 8.0625 C6.19859375 8.94035156 6.6471875 9.81820312 7.109375 10.72265625 C7.40328125 11.47417969 7.6971875 12.22570312 8 13 C7.67 13.66 7.34 14.32 7 15 C6.67 13.68 6.34 12.36 6 11 C5.34 11 4.68 11 4 11 C4 10.34 4 9.68 4 9 C2.35 8.67 0.7 8.34 -1 8 C-2.04549908 4.86350275 -2.00170317 4.0051095 -1 1 C-0.67 0.67 -0.34 0.34 0 0 Z " fill="#074BA4" transform="translate(492,236)"/>
<path d="M0 0 C0.33 0 0.66 0 1 0 C1.125 5.75 1.125 5.75 0 8 C-0.99 8 -1.98 8 -3 8 C-3.66 10.31 -4.32 12.62 -5 15 C-5.66 15 -6.32 15 -7 15 C-7.66 17.31 -8.32 19.62 -9 22 C-9.66 22 -10.32 22 -11 22 C-9.4504199 16.5060342 -6.84087949 11.90157715 -4 7 C-3.22879212 5.64604661 -2.45791915 4.29190235 -1.6875 2.9375 C-1.130625 1.968125 -0.57375 0.99875 0 0 Z " fill="#0D489C" transform="translate(355,221)"/>
<path d="M0 0 C1.50433594 0.01353516 1.50433594 0.01353516 3.0390625 0.02734375 C3.80992187 0.03894531 4.58078125 0.05054687 5.375 0.0625 C5.375 1.0525 5.375 2.0425 5.375 3.0625 C2.49084117 4.50457941 -0.04221528 4.15644887 -3.25 4.125 C-4.43851562 4.11597656 -5.62703125 4.10695313 -6.8515625 4.09765625 C-7.76679687 4.08605469 -8.68203125 4.07445313 -9.625 4.0625 C-8.965 3.7325 -8.305 3.4025 -7.625 3.0625 C-7.625 2.4025 -7.625 1.7425 -7.625 1.0625 C-4.98041621 -0.25979189 -2.94738699 -0.03427194 0 0 Z " fill="#1254A6" transform="translate(128.625,99.9375)"/>
<path d="M0 0 C-3.465 1.485 -3.465 1.485 -7 3 C-7 3.33 -7 3.66 -7 4 C-3.37 4.33 0.26 4.66 4 5 C4 5.33 4 5.66 4 6 C-2.93 6 -9.86 6 -17 6 C-17 5.34 -17 4.68 -17 4 C-14.36 3.67 -11.72 3.34 -9 3 C-9 2.34 -9 1.68 -9 1 C-2.25 -1.125 -2.25 -1.125 0 0 Z " fill="#1053A7" transform="translate(153,95)"/>
<path d="M0 0 C0.33 0.66 0.66 1.32 1 2 C3.11846285 2.68729254 3.11846285 2.68729254 5.5625 3.125 C6.38878906 3.29257813 7.21507812 3.46015625 8.06640625 3.6328125 C8.70449219 3.75398438 9.34257812 3.87515625 10 4 C10 4.33 10 4.66 10 5 C-9.23380428 5.25607136 -9.23380428 5.25607136 -16 4 C-16.33 3.34 -16.66 2.68 -17 2 C-15.41058594 1.90912109 -15.41058594 1.90912109 -13.7890625 1.81640625 C-12.40102779 1.73199873 -11.01300768 1.64735083 -9.625 1.5625 C-8.92632812 1.52318359 -8.22765625 1.48386719 -7.5078125 1.44335938 C-3.62639508 1.25719866 -3.62639508 1.25719866 0 0 Z " fill="#0C4C9D" transform="translate(253,97)"/>
<path d="M0 0 C-1.5625 1.1875 -1.5625 1.1875 -4 2 C-5.68613325 1.27973011 -7.36970619 0.55040158 -9.02001953 -0.24853516 C-12.57971175 -1.59955028 -16.18114904 -1.31303358 -19.9375 -1.1875 C-20.71673828 -1.17396484 -21.49597656 -1.16042969 -22.29882812 -1.14648438 C-24.19952404 -1.11150224 -26.09985834 -1.05770959 -28 -1 C-18.97551609 -7.01632261 -9.39609685 -3.16500104 0 0 Z " fill="#0B3A83" transform="translate(437,146)"/>
<path d="M0 0 C0.99 0 1.98 0 3 0 C3.23074219 0.74765625 3.46148437 1.4953125 3.69921875 2.265625 C5.66496407 8.20170967 7.01979967 11.12651085 12 15 C12.3125 18.75 12.3125 18.75 12 22 C9.00151482 19.42986984 7.67202675 16.54469671 6 13 C5.31445084 11.64484468 4.62687319 10.29071403 3.9375 8.9375 C2.47021117 6.00854413 1.15139444 3.07038518 0 0 Z " fill="#093C84" transform="translate(424,237)"/>
<path d="M0 0 C6.07366991 3.32605733 10.68775308 8.51840817 12.66796875 15.28125 C12.77753906 15.8484375 12.88710938 16.415625 13 17 C12.34 17 11.68 17 11 17 C9.37761317 14.76300423 7.9771559 12.42302461 6.53515625 10.06640625 C5.09271887 7.71260243 5.09271887 7.71260243 2 7 C0.8125 3.4375 0.8125 3.4375 0 0 Z " fill="#08408B" transform="translate(442,150)"/>
<path d="M0 0 C-3.56122537 1.18707512 -6.79517343 1.14907965 -10.5 1.125 C-11.20962891 1.12306641 -11.91925781 1.12113281 -12.65039062 1.11914062 C-18.46947842 1.07183097 -24.21966794 0.68580211 -30 0 C-30 -0.33 -30 -0.66 -30 -1 C-25.75074388 -1.22594826 -21.50067556 -1.42771126 -17.25 -1.625 C-16.0434375 -1.68945312 -14.836875 -1.75390625 -13.59375 -1.8203125 C-12.43359375 -1.871875 -11.2734375 -1.9234375 -10.078125 -1.9765625 C-9.00981445 -2.02893066 -7.94150391 -2.08129883 -6.84082031 -2.13525391 C-3.97056896 -1.99859876 -2.41781335 -1.49455551 0 0 Z " fill="#878787" transform="translate(297,120)"/>
<path d="M0 0 C0.66 1.32 1.32 2.64 2 4 C2.66 4 3.32 4 4 4 C4.33 5.65 4.66 7.3 5 9 C1.33827525 8.37321829 -1.8818995 7.35548154 -5.3125 5.9375 C-6.63701172 5.39416016 -6.63701172 5.39416016 -7.98828125 4.83984375 C-8.65214844 4.56269531 -9.31601563 4.28554687 -10 4 C-6.34811918 2.92825237 -3.73567172 3.23588533 0 4 C0 2.68 0 1.36 0 0 Z " fill="#9E9FA1" transform="translate(148,81)"/>
<path d="M0 0 C5 5 5 5 6.34375 6.65625 C8.65799806 8.53384748 10.2534161 8.30181496 13.1875 8.1875 C14.08855469 8.16042969 14.98960937 8.13335937 15.91796875 8.10546875 C16.94857422 8.05326172 16.94857422 8.05326172 18 8 C18 8.66 18 9.32 18 10 C16.04310341 10.22142255 14.08438048 10.4267568 12.125 10.625 C10.48917969 10.79902344 10.48917969 10.79902344 8.8203125 10.9765625 C7.42425781 10.98816406 7.42425781 10.98816406 6 11 C5.34 10.34 4.68 9.68 4 9 C4 8.01 4 7.02 4 6 C2.68 5.67 1.36 5.34 0 5 C0 3.35 0 1.7 0 0 Z " fill="#124DA5" transform="translate(506,90)"/>
<path d="M0 0 C0.66 1.65 1.32 3.3 2 5 C-1.63 5 -5.26 5 -9 5 C-9 4.01 -9 3.02 -9 2 C-5.5647952 -0.29013653 -4.014669 -0.17842973 0 0 Z " fill="#F8F8F8" transform="translate(212,138)"/>
<path d="M0 0 C9.40228594 -0.1170409 18.62895894 0.11504503 28 1 C28 1.33 28 1.66 28 2 C25.69 2.33 23.38 2.66 21 3 C21 3.33 21 3.66 21 4 C17.95623095 4.14157065 15.58925814 4.24552422 12.75 3.0625 C8.62125869 1.46730449 4.38915439 1.32385994 0 1 C0 0.67 0 0.34 0 0 Z " fill="#B9B9B8" transform="translate(208,106)"/>
<path d="M0 0 C1.63001953 0.01353516 1.63001953 0.01353516 3.29296875 0.02734375 C4.12441406 0.03894531 4.95585937 0.05054687 5.8125 0.0625 C5.8125 1.3825 5.8125 2.7025 5.8125 4.0625 C-0.1275 3.7325 -6.0675 3.4025 -12.1875 3.0625 C-7.9047612 0.2073408 -5.04291942 -0.05422494 0 0 Z " fill="#084190" transform="translate(204.1875,87.9375)"/>
<path d="M0 0 C0.625 1.8125 0.625 1.8125 1 4 C0.01 5.485 0.01 5.485 -1 7 C-0.938125 7.969375 -0.87625 8.93875 -0.8125 9.9375 C-1 13 -1 13 -3.375 15.375 C-6 17 -6 17 -8 17 C-6.51095825 13.10391502 -4.75621287 9.40902982 -2.875 5.6875 C-2.06675781 4.08455078 -2.06675781 4.08455078 -1.2421875 2.44921875 C-0.62730469 1.23685547 -0.62730469 1.23685547 0 0 Z " fill="#064FAA" transform="translate(300,321)"/>
<path d="M0 0 C1.32 0.33 2.64 0.66 4 1 C4.33 3.31 4.66 5.62 5 8 C5.66 8 6.32 8 7 8 C9.15305957 11.85756507 10.39253254 14.55129785 10 19 C7.33351629 15.66894651 5.3330319 12.12802152 3.3125 8.375 C2.68988281 7.22773438 2.06726563 6.08046875 1.42578125 4.8984375 C0 2 0 2 0 0 Z " fill="#0D46A0" transform="translate(457,299)"/>
<path d="M0 0 C0.99 0.33 1.98 0.66 3 1 C2.67 1.66 2.34 2.32 2 3 C1.34 3 0.68 3 0 3 C-0.433125 4.175625 -0.433125 4.175625 -0.875 5.375 C-2 8 -2 8 -4 10 C-4.33 9.01 -4.66 8.02 -5 7 C-6.32 7.99 -7.64 8.98 -9 10 C-9.66 9.67 -10.32 9.34 -11 9 C-9.8803014 7.99406757 -8.7540588 6.9954151 -7.625 6 C-6.99851563 5.443125 -6.37203125 4.88625 -5.7265625 4.3125 C-4 3 -4 3 -2 3 C-2 2.34 -2 1.68 -2 1 C-1.34 0.67 -0.68 0.34 0 0 Z " fill="#808080" transform="translate(158,53)"/>
<path d="M0 0 C1 2 2 4 3 6 C-1.455 6.495 -1.455 6.495 -6 7 C-6 5.68 -6 4.36 -6 3 C-4.02 2.01 -2.04 1.02 0 0 Z " fill="#A5A5A5" transform="translate(44,143)"/>
<path d="M0 0 C9.9 0 19.8 0 30 0 C29.34 1.98 28.68 3.96 28 6 C27.67 6 27.34 6 27 6 C27 4.35 27 2.7 27 1 C18.09 1 9.18 1 0 1 C0 0.67 0 0.34 0 0 Z " fill="#DFDFDF" transform="translate(352,144)"/>
<path d="M0 0 C2 1 4 2 6 3 C6 3.66 6 4.32 6 5 C6.99 5.33 7.98 5.66 9 6 C8.01 6.495 8.01 6.495 7 7 C6.34 6.67 5.68 6.34 5 6 C5 6.99 5 7.98 5 9 C5.66 9.33 6.32 9.66 7 10 C6.01 11.485 6.01 11.485 5 13 C4.15930585 11.39967863 3.32768495 9.79458829 2.5 8.1875 C1.80390625 6.84751953 1.80390625 6.84751953 1.09375 5.48046875 C0 3 0 3 0 0 Z " fill="#989898" transform="translate(122,53)"/>
<path d="M0 0 C3.51842512 2.34561675 4.37809273 4.189142 6.25 7.9375 C7.06210937 9.52884766 7.06210937 9.52884766 7.890625 11.15234375 C9 14 9 14 8 17 C7.01 16.67 6.02 16.34 5 16 C4.46315671 14.38947013 3.9435397 12.76985249 3.5390625 11.12109375 C2.92973487 8.72352198 2.16717703 6.40571524 1.375 4.0625 C0.98441406 2.90427734 0.98441406 2.90427734 0.5859375 1.72265625 C0.39257812 1.15417969 0.19921875 0.58570313 0 0 Z " fill="#084695" transform="translate(500,251)"/>
<path d="M0 0 C1.30731781 4.01149575 0.56556966 6.27839378 -0.96484375 10.09375 C-2.44306596 12.81591015 -4.43166107 14.33405042 -7 16 C-7 12.11908033 -5.34682267 9.60326704 -3.5 6.3125 C-3.16613281 5.70599609 -2.83226562 5.09949219 -2.48828125 4.47460938 C-1.664463 2.97996769 -0.83296549 1.48956329 0 0 Z " fill="#0B3F8D" transform="translate(309,305)"/>
<path d="M0 0 C0.33 0.66 0.66 1.32 1 2 C-0.24125182 4.61161731 -1.5310524 7.10501786 -2.9375 9.625 C-3.32357422 10.33140625 -3.70964844 11.0378125 -4.10742188 11.765625 C-5.06448696 13.51433651 -6.03134031 15.25768432 -7 17 C-8.60031344 13.79937313 -7.03173691 11.27728194 -6 8 C-5.34 8 -4.68 8 -4 8 C-4 6.35 -4 4.7 -4 3 C-3.01 3 -2.02 3 -1 3 C-0.67 2.01 -0.34 1.02 0 0 Z " fill="#09438D" transform="translate(393,275)"/>
<path d="M0 0 C1.59273572 3.18547144 0.76164121 5.60190847 0 9 C-1.9375 11.1875 -1.9375 11.1875 -4 13 C-5.23512079 15.13309192 -5.23512079 15.13309192 -6 17 C-6.66 17 -7.32 17 -8 17 C-6.3341708 10.83643195 -3.12194714 5.51740344 0 0 Z " fill="#094188" transform="translate(364,204)"/>
<path d="M0 0 C0.625 1.8125 0.625 1.8125 1 4 C0.01 5.485 0.01 5.485 -1 7 C-1.33 7.99 -1.66 8.98 -2 10 C-3 13 -3 13 -5 16 C-5.66 16 -6.32 16 -7 16 C-5.60668753 10.04675579 -3.11464243 5.24258516 0 0 Z " fill="#0A4793" transform="translate(381,350)"/>
<path d="M0 0 C1.125 3.75 1.125 3.75 0 6 C-0.66 6 -1.32 6 -2 6 C-2.185625 7.4540625 -2.185625 7.4540625 -2.375 8.9375 C-2.58125 9.948125 -2.7875 10.95875 -3 12 C-3.99 12.495 -3.99 12.495 -5 13 C-5.33 13.99 -5.66 14.98 -6 16 C-6.66 16 -7.32 16 -8 16 C-6.64190249 12.48789667 -5.12536693 9.11565705 -3.4375 5.75 C-2.78587891 4.44289062 -2.78587891 4.44289062 -2.12109375 3.109375 C-1 1 -1 1 0 0 Z " fill="#0B3D85" transform="translate(384,168)"/>
<path d="M0 0 C0.99 0 1.98 0 3 0 C3 1.32 3 2.64 3 4 C2.38125 4.061875 1.7625 4.12375 1.125 4.1875 C-1.25602845 4.82051688 -1.25602845 4.82051688 -2.1875 7.4375 C-2.455625 8.283125 -2.72375 9.12875 -3 10 C-3.33 10.66 -3.66 11.32 -4 12 C-4.66 12 -5.32 12 -6 12 C-4.68535639 7.39874735 -2.96668552 3.77578157 0 0 Z " fill="#0A4DA5" transform="translate(391,156)"/>
<path d="M0 0 C3.9492568 0.55105909 7.34920174 1.38935371 11 3 C11 3.99 11 4.98 11 6 C8.36 5.67 5.72 5.34 3 5 C3 4.34 3 3.68 3 3 C2.34 2.67 1.68 2.34 1 2 C0.67 1.34 0.34 0.68 0 0 Z " fill="#A8A8A8" transform="translate(228,142)"/>
<path d="M0 0 C8.25 0.66 16.5 1.32 25 2 C25 2.33 25 2.66 25 3 C15.93968942 4.00267437 8.59242605 4.57849273 0 1 C0 0.67 0 0.34 0 0 Z " fill="#0E3A89" transform="translate(346,91)"/>
<path d="M0 0 C5 6.59090909 5 6.59090909 5 10 C3.02 10.99 3.02 10.99 1 12 C0.34 11.34 -0.32 10.68 -1 10 C-0.67 9.01 -0.34 8.02 0 7 C0.03954234 4.66700175 0.04401732 2.33291811 0 0 Z " fill="#084CAB" transform="translate(465,339)"/>
<path d="M0 0 C0.99 0 1.98 0 3 0 C3.33 1.98 3.66 3.96 4 6 C4.99 5.67 5.98 5.34 7 5 C7.33 7.97 7.66 10.94 8 14 C0 4.57142857 0 4.57142857 0 0 Z " fill="#083F8D" transform="translate(436,260)"/>
<path d="M0 0 C0.66 0.33 1.32 0.66 2 1 C-0.59641365 5.71048959 -3.18863332 10.41303332 -6 15 C-7.33332095 12.3333581 -6.67102033 10.83319697 -6 8 C-5.34 8 -4.68 8 -4 8 C-4 6.68 -4 5.36 -4 4 C-3.34 4 -2.68 4 -2 4 C-2 3.34 -2 2.68 -2 2 C-1.34 2 -0.68 2 0 2 C0 1.34 0 0.68 0 0 Z " fill="#083B7F" transform="translate(401,260)"/>
<path d="M0 0 C-1.49097658 3.7952131 -3.75700849 5.61042731 -7 8 C-7.66 7.67 -8.32 7.34 -9 7 C-8.39816251 4.97954558 -7.72693904 2.97888961 -7 1 C-4.53721199 -0.231394 -2.7204945 -0.07159196 0 0 Z " fill="#113B78" transform="translate(562,91)"/>
<path d="M0 0 C1.19625 0.309375 2.3925 0.61875 3.625 0.9375 C7.06402439 1.80031573 10.49136573 2.47370486 14 3 C14 3.99 14 4.98 14 6 C11.36 5.67 8.72 5.34 6 5 C6 4.34 6 3.68 6 3 C5.195625 2.87625 4.39125 2.7525 3.5625 2.625 C2.716875 2.41875 1.87125 2.2125 1 2 C0.67 1.34 0.34 0.68 0 0 Z " fill="#0951BC" transform="translate(426,145)"/>
<path d="M0 0 C-1.91315119 2.57619276 -2.9016314 2.98395232 -6.13671875 3.51171875 C-7.30847656 3.56972656 -8.48023438 3.62773438 -9.6875 3.6875 C-10.86699219 3.75324219 -12.04648437 3.81898437 -13.26171875 3.88671875 C-14.61716797 3.94279297 -14.61716797 3.94279297 -16 4 C-16 3.34 -16 2.68 -16 2 C-10.61972975 0.80911014 -5.54708616 -0.2919519 0 0 Z " fill="#0D469A" transform="translate(543,96)"/>
<path d="M0 0 C2.67438936 2.38335287 4.15158012 4.87036148 5.75 8.0625 C6.19859375 8.94035156 6.6471875 9.81820313 7.109375 10.72265625 C7.40328125 11.47417969 7.6971875 12.22570312 8 13 C7.67 13.66 7.34 14.32 7 15 C3.57012385 9.96951498 1.00498903 6.02993421 0 0 Z " fill="#093E8A" transform="translate(475,358)"/>
<path d="M0 0 C2.20187672 2.20187672 3.28178929 4.22885682 4.6875 7 C5.14511719 7.886875 5.60273437 8.77375 6.07421875 9.6875 C6.37972656 10.450625 6.68523438 11.21375 7 12 C6.67 12.66 6.34 13.32 6 14 C3 12 3 12 1 9 C0.5859375 6.73828125 0.5859375 6.73828125 0.375 4.3125 C0.30023437 3.50425781 0.22546875 2.69601562 0.1484375 1.86328125 C0.09945312 1.24839844 0.05046875 0.63351562 0 0 Z " fill="#094594" transform="translate(546,335)"/>
<path d="M0 0 C0.66 0.33 1.32 0.66 2 1 C0.02 4.63 -1.96 8.26 -4 12 C-4.66 10.68 -5.32 9.36 -6 8 C-4.8125 5.25 -4.8125 5.25 -3 3 C-2.01 3 -1.02 3 0 3 C0 2.01 0 1.02 0 0 Z " fill="#B8B8B8" transform="translate(300,292)"/>
<path d="M0 0 C2.49552403 2.27597646 4.06622986 4.60721178 5.6875 7.5625 C6.12449219 8.34753906 6.56148437 9.13257813 7.01171875 9.94140625 C8 12 8 12 8 14 C6 14 6 14 4.48046875 12.78515625 C2.77319736 10.7265203 2.10530414 8.98370167 1.3125 6.4375 C1.06113281 5.65246094 0.80976562 4.86742187 0.55078125 4.05859375 C0 2 0 2 0 0 Z " fill="#073B80" transform="translate(512,273)"/>
<path d="M0 0 C2.76010448 3.22012189 4.60050392 6.00143978 6 10 C6.37125 10.928125 6.7425 11.85625 7.125 12.8125 C7.41375 13.534375 7.7025 14.25625 8 15 C6.0625 14.4375 6.0625 14.4375 4 13 C3.25 9.375 3.25 9.375 3 6 C2.34 6 1.68 6 1 6 C0.67 4.02 0.34 2.04 0 0 Z " fill="#0B418E" transform="translate(474,202)"/>
<path d="M0 0 C5.94 0.66 11.88 1.32 18 2 C14 5 14 5 11 5 C11 4.01 11 3.02 11 2 C10.484375 2.20625 9.96875 2.4125 9.4375 2.625 C5.96734329 3.15887026 3.29364209 2.07676761 0 1 C0 0.67 0 0.34 0 0 Z " fill="#B1B1B1" transform="translate(179,132)"/>
<path d="M0 0 C2.20826378 -0.02722517 4.41662638 -0.04649729 6.625 -0.0625 C7.85476562 -0.07410156 9.08453125 -0.08570312 10.3515625 -0.09765625 C13.67723791 -0.00863924 16.74047588 0.36313913 20 1 C20 1.33 20 1.66 20 2 C16.37 2.33 12.74 2.66 9 3 C9 2.34 9 1.68 9 1 C6.03 1 3.06 1 0 1 C0 0.67 0 0.34 0 0 Z " fill="#105CBC" transform="translate(210,88)"/>
<path d="M0 0 C0.33 0 0.66 0 1 0 C1.1875 2.8125 1.1875 2.8125 1 6 C-0.375 7.5625 -0.375 7.5625 -2 9 C-3.19027984 11.59915538 -3.19027984 11.59915538 -4 14 C-4.66 14 -5.32 14 -6 14 C-5.57742724 12.5164999 -5.13643678 11.03823576 -4.6875 9.5625 C-4.32205078 8.32693359 -4.32205078 8.32693359 -3.94921875 7.06640625 C-3.63597656 6.38449219 -3.32273437 5.70257813 -3 5 C-2.01 4.67 -1.02 4.34 0 4 C0 2.68 0 1.36 0 0 Z " fill="#0B428A" transform="translate(280,358)"/>
<path d="M0 0 C1.32 0 2.64 0 4 0 C2.77782954 4.04256383 1.37245704 7.49288959 -1 11 C-1.33 11 -1.66 11 -2 11 C-2 9.02 -2 7.04 -2 5 C-1.67 5 -1.34 5 -1 5 C-0.67 3.35 -0.34 1.7 0 0 Z " fill="#094EA7" transform="translate(357,336)"/>
<path d="M0 0 C1.32 0.33 2.64 0.66 4 1 C2.02 4.63 0.04 8.26 -2 12 C-3.09658936 8.71023192 -2.79953138 7.28696233 -2 4 C-1.34 4 -0.68 4 0 4 C0 2.68 0 1.36 0 0 Z " fill="#09428E" transform="translate(349,352)"/>
<path d="M0 0 C0.66 0 1.32 0 2 0 C0.55049545 3.7910119 -1.15172566 7.3874638 -3 11 C-3.66 10.01 -4.32 9.02 -5 8 C-2.25 2.25 -2.25 2.25 0 0 Z " fill="#BEBFC0" transform="translate(291,308)"/>
<path d="M0 0 C1.65 0 3.3 0 5 0 C5.33 1.32 5.66 2.64 6 4 C3.03 4 0.06 4 -3 4 C-2.67 3.34 -2.34 2.68 -2 2 C-1.34 2 -0.68 2 0 2 C0 1.34 0 0.68 0 0 Z " fill="#1453A7" transform="translate(107,104)"/>
<path d="M0 0 C2.52230627 1.26115314 2.88890155 2.37533425 4.125 4.875 C4.47820313 5.57367188 4.83140625 6.27234375 5.1953125 6.9921875 C6 9 6 9 6 12 C5.01 11.34 4.02 10.68 3 10 C3 9.34 3 8.68 3 8 C2.01 7.67 1.02 7.34 0 7 C0 4.69 0 2.38 0 0 Z " fill="#093D8D" transform="translate(524,295)"/>
<path d="M0 0 C0.66 0 1.32 0 2 0 C1.125 5.75 1.125 5.75 0 8 C-0.66 8 -1.32 8 -2 8 C-2.33 9.98 -2.66 11.96 -3 14 C-3.33 14 -3.66 14 -4 14 C-4 11.36 -4 8.72 -4 6 C-3.01 5.67 -2.02 5.34 -1 5 C-0.67 3.35 -0.34 1.7 0 0 Z " fill="#093F86" transform="translate(407,246)"/>
<path d="M0 0 C1.04449911 3.13349732 0.93423645 3.98968256 0 7 C2.64 7 5.28 7 8 7 C8 7.33 8 7.66 8 8 C4.37 8 0.74 8 -3 8 C-2 3 -2 3 0 0 Z " fill="#1253AC" transform="translate(273,372)"/>
<path d="M0 0 C0 3.48961209 -0.90379374 5.11480295 -2.5 8.1875 C-2.9640625 9.08855469 -3.428125 9.98960937 -3.90625 10.91796875 C-4.2671875 11.60503906 -4.628125 12.29210937 -5 13 C-5.93423645 9.98968256 -6.04449911 9.13349732 -5 6 C-4.34 6 -3.68 6 -3 6 C-3 4.68 -3 3.36 -3 2 C-2.01 1.34 -1.02 0.68 0 0 Z " fill="#0B458E" transform="translate(372,314)"/>
<path d="M0 0 C1.33332095 2.6666419 0.67102033 4.16680303 0 7 C-0.66 7 -1.32 7 -2 7 C-2 7.99 -2 8.98 -2 10 C-2.66 10 -3.32 10 -4 10 C-4 10.66 -4 11.32 -4 12 C-4.66 11.67 -5.32 11.34 -6 11 C-5.18993474 9.35296694 -4.3768779 7.70740494 -3.5625 6.0625 C-3.11003906 5.14597656 -2.65757812 4.22945313 -2.19140625 3.28515625 C-1 1 -1 1 0 0 Z " fill="#0C4593" transform="translate(323,280)"/>
<path d="M0 0 C0.99 0.33 1.98 0.66 3 1 C3.94850418 3.28343598 4.52146978 5.58076728 5.15625 7.96875 C5.4346875 8.6390625 5.713125 9.309375 6 10 C6.99 10.33 7.98 10.66 9 11 C8.34 12.32 7.68 13.64 7 15 C4.69 10.05 2.38 5.1 0 0 Z " fill="#0B3E88" transform="translate(446,279)"/>
<path d="M0 0 C2.67438936 2.38335287 4.15158012 4.87036148 5.75 8.0625 C6.19859375 8.94035156 6.6471875 9.81820312 7.109375 10.72265625 C7.40328125 11.47417969 7.6971875 12.22570312 8 13 C7.67 13.66 7.34 14.32 7 15 C2 8.63636364 2 8.63636364 2 4 C1.34 4 0.68 4 0 4 C0 2.68 0 1.36 0 0 Z " fill="#073878" transform="translate(455,167)"/>
<path d="M0 0 C0.99 0.33 1.98 0.66 3 1 C3 1.99 3 2.98 3 4 C2.34 4 1.68 4 1 4 C0.67 5.32 0.34 6.64 0 8 C-0.66 7.67 -1.32 7.34 -2 7 C-2.625 4.4375 -2.625 4.4375 -3 2 C-2.01 1.34 -1.02 0.68 0 0 Z " fill="#0457C5" transform="translate(548,96)"/>
<path d="M0 0 C-0.37994168 2.75457718 -0.8073633 3.82020574 -2.875 5.75 C-5 7 -5 7 -8 7 C-7.8125 5.1875 -7.8125 5.1875 -7 3 C-2.82142857 0 -2.82142857 0 0 0 Z " fill="#959596" transform="translate(124,88)"/>
<path d="M0 0 C0.33 0 0.66 0 1 0 C1 1.65 1 3.3 1 5 C-0.4370809 5.05422947 -1.87475462 5.09289723 -3.3125 5.125 C-4.11300781 5.14820312 -4.91351563 5.17140625 -5.73828125 5.1953125 C-8 5 -8 5 -11 3 C-8.36 2.34 -5.72 1.68 -3 1 C-3 1.66 -3 2.32 -3 3 C-2.34 3 -1.68 3 -1 3 C-0.67 2.01 -0.34 1.02 0 0 Z " fill="#8B8B8C" transform="translate(465,81)"/>
<path d="M0 0 C2.97 0.495 2.97 0.495 6 1 C6 2.32 6 3.64 6 5 C1.25 4.25 1.25 4.25 -1 2 C-0.67 1.34 -0.34 0.68 0 0 Z " fill="#EDEDED" transform="translate(466,57)"/>
<path d="M0 0 C0.99 0.33 1.98 0.66 3 1 C2.67 2.65 2.34 4.3 2 6 C1.360625 6.12375 0.72125 6.2475 0.0625 6.375 C-0.9584375 6.684375 -0.9584375 6.684375 -2 7 C-2.33 7.66 -2.66 8.32 -3 9 C-3.66 9 -4.32 9 -5 9 C-4.6875 7.0625 -4.6875 7.0625 -4 5 C-3.01 4.67 -2.02 4.34 -1 4 C-0.26676204 1.98491642 -0.26676204 1.98491642 0 0 Z " fill="#0451BB" transform="translate(347,238)"/>
<path d="M0 0 C0.33 0.66 0.66 1.32 1 2 C0.360625 2.28875 -0.27875 2.5775 -0.9375 2.875 C-3.15206079 3.82823451 -3.15206079 3.82823451 -4 6 C-4.66 6 -5.32 6 -6 6 C-6 6.66 -6 7.32 -6 8 C-6.66 8 -7.32 8 -8 8 C-8.33 6.68 -8.66 5.36 -9 4 C-6.03 2.68 -3.06 1.36 0 0 Z " fill="#B6B6B6" transform="translate(61,135)"/>
<path d="M0 0 C-0.83144531 0.29003906 -0.83144531 0.29003906 -1.6796875 0.5859375 C-2.40414062 0.84632812 -3.12859375 1.10671875 -3.875 1.375 C-4.59429687 1.63023438 -5.31359375 1.88546875 -6.0546875 2.1484375 C-8.18157994 2.93877783 -8.18157994 2.93877783 -10 5 C-12.26274788 4.64644564 -13.95088852 4.02455574 -16 3 C-3.625 -1.125 -3.625 -1.125 0 0 Z " fill="#969696" transform="translate(110,115)"/>
<path d="M0 0 C1.32 0.33 2.64 0.66 4 1 C2.3811004 2.03048037 0.75467511 3.04914678 -0.875 4.0625 C-1.77992188 4.63097656 -2.68484375 5.19945313 -3.6171875 5.78515625 C-4.40351562 6.18605469 -5.18984375 6.58695312 -6 7 C-6.66 6.67 -7.32 6.34 -8 6 C-7.01 5.67 -6.02 5.34 -5 5 C-5 4.01 -5 3.02 -5 2 C-3.35 2 -1.7 2 0 2 C0 1.34 0 0.68 0 0 Z " fill="#083988" transform="translate(537,107)"/>
<path d="M0 0 C-1.24546405 3.73639216 -2.63404953 4.18756513 -6 6 C-6.33 4.35 -6.66 2.7 -7 1 C-4 0 -4 0 0 0 Z " fill="#B6B6B6" transform="translate(97,152)"/>
<path d="M0 0 C0.66 0.66 1.32 1.32 2 2 C-2.79300133 3.39151652 -7.15135782 2.68662689 -12 2 C-12 1.67 -12 1.34 -12 1 C-7.94392005 0.01670789 -4.16937798 -0.23600253 0 0 Z " fill="#939596" transform="translate(142,108)"/>
<path d="M0 0 C2.76390737 2.40339772 3.04065919 3.16263678 4 7 C0.04 7 -3.92 7 -8 7 C-8 6.67 -8 6.34 -8 6 C-5.03 6 -2.06 6 1 6 C0.67 4.02 0.34 2.04 0 0 Z " fill="#0E3E7B" transform="translate(483,374)"/>
<path d="M0 0 C0.66 0 1.32 0 2 0 C2.433125 0.9590625 2.433125 0.9590625 2.875 1.9375 C3.82823451 4.15206079 3.82823451 4.15206079 6 5 C6 7.31 6 9.62 6 12 C4.42477998 9.63716997 3.1344033 7.40313552 1.875 4.875 C1.52179688 4.17117188 1.16859375 3.46734375 0.8046875 2.7421875 C0 1 0 1 0 0 Z " fill="#0A4191" transform="translate(493,367)"/>
<path d="M0 0 C1.32667306 2.65334611 1.49020734 4.05875595 1 7 C-2 9.3125 -2 9.3125 -5 11 C-4.54917531 9.53932801 -4.08906463 8.08151968 -3.625 6.625 C-3.36976563 5.81289063 -3.11453125 5.00078125 -2.8515625 4.1640625 C-2 2 -2 2 0 0 Z " fill="#0A4290" transform="translate(373,366)"/>
<path d="M0 0 C1.07349791 4.29399165 0.79682816 5.19495213 -1 9 C-1.66 9 -2.32 9 -3 9 C-3 9.66 -3 10.32 -3 11 C-3.66 10.67 -4.32 10.34 -5 10 C-3.35 6.7 -1.7 3.4 0 0 Z " fill="#0B4291" transform="translate(387,339)"/>
<path d="M0 0 C1.98 0.99 1.98 0.99 4 2 C4 4.31 4 6.62 4 9 C1.47740939 7.02579865 1.0070192 6.03254358 0.3125 2.8125 C0.209375 1.884375 0.10625 0.95625 0 0 Z " fill="#0C429C" transform="translate(432,250)"/>
<path d="M0 0 C0 0.33 0 0.66 0 1 C1.65 1.33 3.3 1.66 5 2 C5 2.33 5 2.66 5 3 C-1.15234375 3.09765625 -1.15234375 3.09765625 -3 3 C-3.33 2.67 -3.66 2.34 -4 2 C-6.32817964 1.63239269 -8.6618385 1.29758419 -11 1 C-11 0.67 -11 0.34 -11 0 C-3.375 -1.125 -3.375 -1.125 0 0 Z " fill="#045BC4" transform="translate(412,121)"/>
<path d="M0 0 C5.28 0 10.56 0 16 0 C16 0.33 16 0.66 16 1 C14.7625 1.144375 13.525 1.28875 12.25 1.4375 C9.93483138 1.71059207 7.96729101 2.010903 5.75 2.75 C5.1725 2.8325 4.595 2.915 4 3 C2.68 2.01 1.36 1.02 0 0 Z " fill="#959897" transform="translate(236,108)"/>
<path d="M0 0 C2.89932357 2.39509338 3.50168276 4.31245243 4 8 C4.66 8 5.32 8 6 8 C5.67 8.66 5.34 9.32 5 10 C3.33333333 8.33333333 1.66666667 6.66666667 0 5 C-0.99 5.495 -0.99 5.495 -2 6 C-1.34 4.02 -0.68 2.04 0 0 Z " fill="#073E8A" transform="translate(540,325)"/>
<path d="M0 0 C0.66 0 1.32 0 2 0 C2 0.66 2 1.32 2 2 C4.31 2 6.62 2 9 2 C8.67 2.66 8.34 3.32 8 4 C5.125 4.8125 5.125 4.8125 2 5 C0.125 3.5625 0.125 3.5625 -1 2 C-0.67 1.34 -0.34 0.68 0 0 Z " fill="#7D7D7D" transform="translate(117,121)"/>
<path d="M0 0 C1.2065625 0.0309375 1.2065625 0.0309375 2.4375 0.0625 C2.4375 0.7225 2.4375 1.3825 2.4375 2.0625 C4.7475 2.0625 7.0575 2.0625 9.4375 2.0625 C9.4375 2.3925 9.4375 2.7225 9.4375 3.0625 C7.64616022 3.11641993 5.85436101 3.15525571 4.0625 3.1875 C3.06476563 3.21070312 2.06703125 3.23390625 1.0390625 3.2578125 C-1.5625 3.0625 -1.5625 3.0625 -3.5625 1.0625 C-2.5625 0.0625 -2.5625 0.0625 0 0 Z " fill="#F3F3F3" transform="translate(312.5625,117.9375)"/>
<path d="M0 0 C0.66 0.33 1.32 0.66 2 1 C2 1.99 2 2.98 2 4 C3.32 4.33 4.64 4.66 6 5 C2.79937313 6.60031344 0.27728194 5.03173691 -3 4 C-3 3.01 -3 2.02 -3 1 C-2.01 0.67 -1.02 0.34 0 0 Z " fill="#AAAAAA" transform="translate(449,51)"/>
<path d="M0 0 C2.32947183 2.11770166 3.88750845 4.03335588 5 7 C4.67 7.99 4.34 8.98 4 10 C4 9.34 4 8.68 4 8 C3.01 8 2.02 8 1 8 C0.67 5.36 0.34 2.72 0 0 Z " fill="#073778" transform="translate(562,365)"/>
<path d="M0 0 C0.99 0 1.98 0 3 0 C1.80100302 3.0831351 0.52299523 6.06279492 -1 9 C-1.33 9 -1.66 9 -2 9 C-2 7.02 -2 5.04 -2 3 C-1.34 3 -0.68 3 0 3 C0 2.01 0 1.02 0 0 Z " fill="#084192" transform="translate(375,305)"/>
<path d="M0 0 C0.33 0.66 0.66 1.32 1 2 C1.66 2.33 2.32 2.66 3 3 C2.01 5.31 1.02 7.62 0 10 C-0.66 9.34 -1.32 8.68 -2 8 C-1.69347955 5.0574037 -1.32728846 2.65457692 0 0 Z " fill="#B2B2B2" transform="translate(52,151)"/>
<path d="M0 0 C0.33 0.99 0.66 1.98 1 3 C-5.15234375 2.4140625 -5.15234375 2.4140625 -7 2 C-7.33 1.34 -7.66 0.68 -8 0 C-5.13822943 -1.43088528 -3.06624227 -0.59991697 0 0 Z " fill="#F3F3F3" transform="translate(230,143)"/>
<path d="M0 0 C0.598125 0.20625 1.19625 0.4125 1.8125 0.625 C0.8225 1.12 0.8225 1.12 -0.1875 1.625 C1.4625 1.955 3.1125 2.285 4.8125 2.625 C4.8125 2.955 4.8125 3.285 4.8125 3.625 C2.1725 3.955 -0.4675 4.285 -3.1875 4.625 C-3.8475 3.635 -4.5075 2.645 -5.1875 1.625 C-2.1875 -0.375 -2.1875 -0.375 0 0 Z " fill="#0D346E" transform="translate(105.1875,105.375)"/>
<path d="M0 0 C2.64752004 2.57784846 4.94432065 4.91648098 7 8 C1.125 6.125 1.125 6.125 0 5 C-0.04063832 3.33382885 -0.042721 1.66611905 0 0 Z " fill="#084495" transform="translate(506,90)"/>
<path d="M0 0 C1.98 1.32 3.96 2.64 6 4 C5.01 4.495 5.01 4.495 4 5 C3.34 4.67 2.68 4.34 2 4 C2 4.66 2 5.32 2 6 C-0.97 5.505 -0.97 5.505 -4 5 C-2.68 4.67 -1.36 4.34 0 4 C0 2.68 0 1.36 0 0 Z " fill="#969696" transform="translate(472,58)"/>
<path d="M0 0 C0.88336837 2.4667645 1.1312406 3.63859372 0.22265625 6.140625 C-0.16019531 6.83671875 -0.54304688 7.5328125 -0.9375 8.25 C-1.31777344 8.95640625 -1.69804687 9.6628125 -2.08984375 10.390625 C-2.39019531 10.92171875 -2.69054687 11.4528125 -3 12 C-3.66 12 -4.32 12 -5 12 C-3.68938409 7.76570244 -2.05643741 3.92592596 0 0 Z " fill="#0A3971" transform="translate(300,321)"/>
<path d="M0 0 C0.99 0 1.98 0 3 0 C3.66 2.97 4.32 5.94 5 9 C0.57142857 3.85714286 0.57142857 3.85714286 0 0 Z " fill="#084090" transform="translate(473,329)"/>
<path d="M0 0 C3.53647504 1.67517239 4.7911563 2.49280817 6.3125 6.1875 C6.539375 7.115625 6.76625 8.04375 7 9 C6.34 9 5.68 9 5 9 C3.7109375 7.5390625 3.7109375 7.5390625 2.375 5.625 C1.92898438 4.99851563 1.48296875 4.37203125 1.0234375 3.7265625 C0 2 0 2 0 0 Z " fill="#0C489B" transform="translate(448,158)"/>
<path d="M0 0 C4.54805635 -0.17835515 7.8794254 0.00214565 12 2 C12 2.33 12 2.66 12 3 C4.61538462 3.36923077 4.61538462 3.36923077 1.5 1.5 C1.005 1.005 0.51 0.51 0 0 Z " fill="#0C5ABC" transform="translate(365,115)"/>
<path d="M0 0 C2.31 0 4.62 0 7 0 C7 0.66 7 1.32 7 2 C3.52674819 3.1577506 0.63932552 3.06866652 -3 3 C-2.01 2.67 -1.02 2.34 0 2 C0 1.34 0 0.68 0 0 Z " fill="#075AC6" transform="translate(127,100)"/>
<path d="M0 0 C3 1 3 1 4.1875 3.0625 C4.455625 3.701875 4.72375 4.34125 5 5 C3.35 5.66 1.7 6.32 0 7 C0 4.69 0 2.38 0 0 Z " fill="#969696" transform="translate(107,29)"/>
<path d="M0 0 C0.92538169 3.70152678 1.08174162 4.63458162 0 8 C-1.32 8.33 -2.64 8.66 -4 9 C-2.68 6.03 -1.36 3.06 0 0 Z " fill="#09458D" transform="translate(285,349)"/>
<path d="M0 0 C1.65 0 3.3 0 5 0 C4.67 2.64 4.34 5.28 4 8 C1.53721199 5.53721199 1.00228745 3.29323018 0 0 Z " fill="#054DAC" transform="translate(467,318)"/>
<path d="M0 0 C0 1.65 0 3.3 0 5 C-2.16874252 4.49396008 -3.99967627 4.00016187 -6 3 C-6 2.34 -6 1.68 -6 1 C-1.125 0 -1.125 0 0 0 Z " fill="#9A9A9A" transform="translate(58,160)"/>
<path d="M0 0 C0.99 0 1.98 0 3 0 C2.50168276 3.68754757 1.89932357 5.60490662 -1 8 C-1.93065133 5.39417629 -2.14917407 4.35801776 -1.0625 1.75 C-0.711875 1.1725 -0.36125 0.595 0 0 Z " fill="#B0B0B2" transform="translate(373,155)"/>
<path d="M0 0 C2.05078125 0.03255208 4.1015625 0.06510417 6.15234375 0.09765625 C2.86770716 2.28741398 -0.054619 3.09572188 -3.84765625 4.09765625 C-2.52627892 0.13352426 -2.52627892 0.13352426 0 0 Z " fill="#9F9F9F" transform="translate(292.84765625,49.90234375)"/>
<path d="M0 0 C0.66 0.33 1.32 0.66 2 1 C0.1875 3.5 0.1875 3.5 -2 6 C-2.99 6 -3.98 6 -5 6 C-4.75 4.125 -4.75 4.125 -4 2 C-2.0625 0.6875 -2.0625 0.6875 0 0 Z " fill="#0550B5" transform="translate(379,182)"/>
<path d="M0 0 C-0.9977758 2.99332739 -1.7522025 3.94766315 -4 6 C-5.32 5.34 -6.64 4.68 -8 4 C-2.25 0 -2.25 0 0 0 Z " fill="#B5B5B5" transform="translate(77,126)"/>
<path d="M0 0 C2.64 0.33 5.28 0.66 8 1 C8 1.99 8 2.98 8 4 C6.02 4 4.04 4 2 4 C2.66 3.34 3.32 2.68 4 2 C2.68 1.34 1.36 0.68 0 0 Z " fill="#555555" transform="translate(327,120)"/>
<path d="M0 0 C2.97 0.33 5.94 0.66 9 1 C8.01 1.495 8.01 1.495 7 2 C6.67 2.66 6.34 3.32 6 4 C4.02 3.01 2.04 2.02 0 1 C0 0.67 0 0.34 0 0 Z " fill="#898989" transform="translate(280,112)"/>
<path d="M0 0 C-3.75 2 -3.75 2 -6 2 C-6 2.66 -6 3.32 -6 4 C-6.66 4 -7.32 4 -8 4 C-8 3.34 -8 2.68 -8 2 C-8.66 1.67 -9.32 1.34 -10 1 C-6.78548731 -0.60725635 -3.56387464 -0.05748185 0 0 Z " fill="#AAAAAB" transform="translate(120,112)"/>
<path d="M0 0 C4.42857143 5.14285714 4.42857143 5.14285714 5 9 C4.01 8.67 3.02 8.34 2 8 C2 6.68 2 5.36 2 4 C1.34 4 0.68 4 0 4 C0 2.68 0 1.36 0 0 Z " fill="#08388C" transform="translate(557,356)"/>
<path d="M0 0 C0.66 0.66 1.32 1.32 2 2 C1.625 5.125 1.625 5.125 1 8 C-0.89213369 5.61426621 -2.02391783 3.92824652 -3 1 C-2.01 0.67 -1.02 0.34 0 0 Z " fill="#BEBEBE" transform="translate(196,349)"/>
<path d="M0 0 C4 4.625 4 4.625 4 8 C3.01 8 2.02 8 1 8 C0.67 5.36 0.34 2.72 0 0 Z " fill="#0C458B" transform="translate(458,326)"/>
<path d="M0 0 C1.39195915 4.17587745 -0.17676781 6.13474776 -2 10 C-2.66 10 -3.32 10 -4 10 C-2.8905928 6.51329166 -1.73662334 3.22515763 0 0 Z " fill="#0C3F8A" transform="translate(348,233)"/>
<path d="M0 0 C1.65 0 3.3 0 5 0 C5 2.31 5 4.62 5 7 C2.47411298 4.63707344 1.11179163 3.33537489 0 0 Z " fill="#0B4495" transform="translate(419,229)"/>
<path d="M0 0 C4.42857143 5.14285714 4.42857143 5.14285714 5 9 C3.0625 8.4375 3.0625 8.4375 1 7 C0.25 3.375 0.25 3.375 0 0 Z " fill="#094187" transform="translate(482,217)"/>
<path d="M0 0 C1.0326802 2.78823655 1.04509293 3.8677274 0.0625 6.75 C-0.288125 7.4925 -0.63875 8.235 -1 9 C-1.99 8.34 -2.98 7.68 -4 7 C-3.67 6.01 -3.34 5.02 -3 4 C-2.34 3.67 -1.68 3.34 -1 3 C-0.67 2.01 -0.34 1.02 0 0 Z " fill="#C5C5C5" transform="translate(280,204)"/>
<path d="M0 0 C0 0.66 0 1.32 0 2 C-0.99 2 -1.98 2 -3 2 C-3 2.99 -3 3.98 -3 5 C-3.66 5 -4.32 5 -5 5 C-5.33 3.68 -5.66 2.36 -6 1 C-4 0 -4 0 0 0 Z " fill="#105094" transform="translate(118,102)"/>
<path d="M0 0 C-0.99 0.495 -0.99 0.495 -2 1 C-2 1.66 -2 2.32 -2 3 C-4.31 3 -6.62 3 -9 3 C-5.92807025 0.26939578 -4.09590633 -0.34132553 0 0 Z " fill="#0F56B7" transform="translate(174,92)"/>
<path d="M0 0 C0 0.99 0 1.98 0 3 C-0.33 3.33 -0.66 3.66 -1 4 C-0.01 4.66 0.98 5.32 2 6 C0.35 6.33 -1.3 6.66 -3 7 C-3 3 -3 3 -1.5 1.25 C-1.005 0.8375 -0.51 0.425 0 0 Z " fill="#727476" transform="translate(452,80)"/>
</svg>
